<?xml version="1.0" encoding="UTF-8"?>
<!DOCTYPE svg PUBLIC "-//W3C//DTD SVG 1.1//EN" "http://www.w3.org/Graphics/SVG/1.1/DTD/svg11.dtd">
<svg xmlns="http://www.w3.org/2000/svg" version="1.1" width="512px" height="512px" style="shape-rendering:geometricPrecision; text-rendering:geometricPrecision; image-rendering:optimizeQuality; fill-rule:evenodd; clip-rule:evenodd" xmlns:xlink="http://www.w3.org/1999/xlink">
<g><path style="opacity:0.993" fill="#000000" d="M 233.5,-0.5 C 248.167,-0.5 262.833,-0.5 277.5,-0.5C 377.805,11.9821 449.305,63.9821 492,155.5C 502.297,180.687 508.797,206.687 511.5,233.5C 511.5,248.167 511.5,262.833 511.5,277.5C 499.018,377.805 447.018,449.305 355.5,492C 330.313,502.297 304.313,508.797 277.5,511.5C 262.833,511.5 248.167,511.5 233.5,511.5C 133.195,499.018 61.6947,447.018 19,355.5C 8.70332,330.313 2.20332,304.313 -0.5,277.5C -0.5,262.833 -0.5,248.167 -0.5,233.5C 11.9821,133.195 63.9821,61.6947 155.5,19C 180.687,8.70332 206.687,2.20332 233.5,-0.5 Z M 121.5,213.5 C 147.038,212.888 162.871,224.888 169,249.5C 170.353,269.63 162.187,284.464 144.5,294C 120.009,301.952 101.509,294.786 89,272.5C 81.4446,250.167 87.2779,232.334 106.5,219C 111.434,216.637 116.434,214.804 121.5,213.5 Z M 249.5,213.5 C 275.038,212.888 290.871,224.888 297,249.5C 298.353,269.63 290.187,284.464 272.5,294C 248.009,301.952 229.509,294.786 217,272.5C 209.445,250.167 215.278,232.334 234.5,219C 239.434,216.637 244.434,214.804 249.5,213.5 Z M 377.5,213.5 C 403.038,212.888 418.871,224.888 425,249.5C 426.353,269.63 418.187,284.464 400.5,294C 376.009,301.952 357.509,294.786 345,272.5C 337.445,250.167 343.278,232.334 362.5,219C 367.434,216.637 372.434,214.804 377.5,213.5 Z"/></g>
</svg>
