<?xml version="1.0" encoding="UTF-8"?>
<!DOCTYPE svg PUBLIC "-//W3C//DTD SVG 1.1//EN" "http://www.w3.org/Graphics/SVG/1.1/DTD/svg11.dtd">
<svg xmlns="http://www.w3.org/2000/svg" version="1.1" width="512px" height="512px" style="shape-rendering:geometricPrecision; text-rendering:geometricPrecision; image-rendering:optimizeQuality; fill-rule:evenodd; clip-rule:evenodd" xmlns:xlink="http://www.w3.org/1999/xlink">
<g><path style="opacity:0.975" fill="#000000" d="M 253.5,33.5 C 266.837,33.3334 280.171,33.5001 293.5,34C 301.547,34.6085 309.214,36.6085 316.5,40C 317.554,41.3876 317.72,42.8876 317,44.5C 313.681,46.4073 311.181,49.074 309.5,52.5C 310.167,53.8333 310.833,55.1667 311.5,56.5C 317.795,58.1602 324.128,59.9936 330.5,62C 340.235,67.7492 346.068,76.2492 348,87.5C 350.457,102.301 348.791,116.634 343,130.5C 341.744,134.016 339.744,137.016 337,139.5C 335.792,133.309 332.626,128.475 327.5,125C 311.142,118.603 294.475,113.103 277.5,108.5C 275.742,109.128 274.242,110.128 273,111.5C 272.501,116.155 272.334,120.821 272.5,125.5C 258.553,125.574 245.553,122.074 233.5,115C 226.461,110.486 219.461,105.986 212.5,101.5C 210.617,101.876 209.117,102.876 208,104.5C 200.929,118.904 189.429,127.071 173.5,129C 172.299,129.903 171.465,131.069 171,132.5C 170.667,135.167 170.333,137.833 170,140.5C 159.686,118.757 159.02,96.757 168,74.5C 172.21,68.7915 177.71,66.9582 184.5,69C 186.74,64.5592 188.906,60.0592 191,55.5C 200.362,47.235 211.196,41.735 223.5,39C 233.58,36.8222 243.58,34.9889 253.5,33.5 Z"/></g>
<g><path style="opacity:0.961" fill="#000000" d="M 213.5,115.5 C 221.284,120.229 229.284,124.729 237.5,129C 251.224,135.677 265.557,137.677 280.5,135C 283.076,131.285 284.076,127.118 283.5,122.5C 296.494,125.22 309.161,129.053 321.5,134C 325.881,138.736 327.548,144.402 326.5,151C 326.45,154.603 325.783,157.936 324.5,161C 290.479,168.802 256.145,170.802 221.5,167C 208.066,165.372 194.732,163.205 181.5,160.5C 181.169,153.137 181.503,145.803 182.5,138.5C 196.001,134.985 206.335,127.319 213.5,115.5 Z"/></g>
<g><path style="opacity:0.904" fill="#000000" d="M 362.5,169.5 C 366.167,169.5 369.833,169.5 373.5,169.5C 373.6,177.91 369.6,183.41 361.5,186C 354.167,186.667 346.833,186.667 339.5,186C 344.817,177.178 352.483,171.678 362.5,169.5 Z"/></g>
<g><path style="opacity:0.963" fill="#000000" d="M 181.5,171.5 C 216.815,179.686 252.482,181.853 288.5,178C 301.274,176.371 313.94,174.204 326.5,171.5C 327.666,182.485 327.832,193.485 327,204.5C 326.326,205.578 325.326,206.245 324,206.5C 277.128,217.275 230.295,217.108 183.5,206C 182.751,204.266 182.251,202.433 182,200.5C 181.5,190.839 181.334,181.172 181.5,171.5 Z"/></g>
<g><path style="opacity:0.864" fill="#000000" d="M 339.5,197.5 C 346.175,197.334 352.842,197.5 359.5,198C 368.486,200.476 373.153,206.31 373.5,215.5C 362.715,216.404 353.215,213.404 345,206.5C 342.517,203.861 340.684,200.861 339.5,197.5 Z"/></g>
<g><path style="opacity:0.931" fill="#000000" d="M 193.5,220.5 C 194.097,219.861 194.93,219.528 196,219.5C 234.677,227.48 273.344,227.48 312,219.5C 312.5,219.833 313,220.167 313.5,220.5C 302.594,235.464 287.928,244.631 269.5,248C 238.772,253.151 213.438,243.984 193.5,220.5 Z"/></g>
<g><path style="opacity:0.941" fill="#000000" d="M 281.5,255.5 C 282.814,257.915 283.481,260.748 283.5,264C 283.333,266.833 283.167,269.667 283,272.5C 273.922,279.289 264.755,285.956 255.5,292.5C 246.245,285.956 237.078,279.289 228,272.5C 227.171,267.136 227.337,261.802 228.5,256.5C 246.397,262.039 264.063,261.705 281.5,255.5 Z"/></g>
<g><path style="opacity:0.91" fill="#000000" d="M 218.5,281.5 C 220.655,281.372 222.655,281.872 224.5,283C 231.539,288.511 238.539,294.011 245.5,299.5C 238.166,305.328 230.666,310.994 223,316.5C 216.377,307.421 209.877,298.254 203.5,289C 208.592,286.454 213.592,283.954 218.5,281.5 Z"/></g>
<g><path style="opacity:0.909" fill="#000000" d="M 288.5,281.5 C 295.67,282.757 302.003,285.59 307.5,290C 301.375,298.962 295.042,307.795 288.5,316.5C 280.528,311.187 272.861,305.521 265.5,299.5C 273.185,293.476 280.852,287.476 288.5,281.5 Z"/></g>
<g><path style="opacity:0.979" fill="#000000" d="M 191.5,293.5 C 193.017,293.511 194.184,294.177 195,295.5C 202.112,306.278 209.612,316.778 217.5,327C 222.736,329.069 227.402,328.069 231.5,324C 239.36,317.973 247.36,312.14 255.5,306.5C 265.695,313.862 276.029,321.028 286.5,328C 290.952,328.86 294.452,327.36 297,323.5C 304.333,313.5 311.667,303.5 319,293.5C 331.022,299.453 343.188,305.12 355.5,310.5C 356.5,337.158 356.833,363.825 356.5,390.5C 289.167,390.5 221.833,390.5 154.5,390.5C 154.167,363.825 154.5,337.158 155.5,310.5C 167.833,305.331 179.833,299.665 191.5,293.5 Z"/></g>
<g><path style="opacity:0.973" fill="#000000" d="M 141.5,316.5 C 143.49,340.811 144.157,365.477 143.5,390.5C 124.833,390.5 106.167,390.5 87.5,390.5C 87.3751,361.91 99.3751,340.077 123.5,325C 129.712,322.392 135.712,319.558 141.5,316.5 Z"/></g>
<g><path style="opacity:0.974" fill="#000000" d="M 367.5,316.5 C 398.52,326.017 417.02,346.684 423,378.5C 423.499,382.486 423.666,386.486 423.5,390.5C 404.833,390.5 386.167,390.5 367.5,390.5C 367.5,365.833 367.5,341.167 367.5,316.5 Z"/></g>
<g><path style="opacity:0.938" fill="#000000" d="M 87.5,401.5 C 94.175,401.334 100.842,401.5 107.5,402C 114.515,413.533 120.848,425.366 126.5,437.5C 113.5,437.5 100.5,437.5 87.5,437.5C 87.5,425.5 87.5,413.5 87.5,401.5 Z"/></g>
<g><path style="opacity:0.927" fill="#000000" d="M 120.5,401.5 C 130.839,401.334 141.172,401.5 151.5,402C 158.214,413.259 164.547,424.759 170.5,436.5C 160.183,437.666 149.849,437.832 139.5,437C 132.908,425.258 126.575,413.425 120.5,401.5 Z"/></g>
<g><path style="opacity:0.926" fill="#000000" d="M 164.5,401.5 C 174.839,401.334 185.172,401.5 195.5,402C 202.214,413.259 208.547,424.759 214.5,436.5C 204.183,437.666 193.849,437.832 183.5,437C 176.505,425.51 170.172,413.677 164.5,401.5 Z"/></g>
<g><path style="opacity:0.926" fill="#000000" d="M 208.5,401.5 C 218.839,401.334 229.172,401.5 239.5,402C 245.706,413.58 252.04,425.08 258.5,436.5C 248.183,437.666 237.849,437.832 227.5,437C 220.505,425.51 214.172,413.677 208.5,401.5 Z"/></g>
<g><path style="opacity:0.925" fill="#000000" d="M 252.5,401.5 C 262.839,401.334 273.172,401.5 283.5,402C 289.706,413.58 296.04,425.08 302.5,436.5C 292.183,437.666 281.849,437.832 271.5,437C 264.505,425.51 258.172,413.677 252.5,401.5 Z"/></g>
<g><path style="opacity:0.923" fill="#000000" d="M 296.5,401.5 C 306.839,401.334 317.172,401.5 327.5,402C 333.706,413.58 340.04,425.08 346.5,436.5C 335.833,437.833 325.167,437.833 314.5,436.5C 308.198,424.894 302.198,413.227 296.5,401.5 Z"/></g>
<g><path style="opacity:0.924" fill="#000000" d="M 340.5,401.5 C 350.839,401.334 361.172,401.5 371.5,402C 377.706,413.58 384.04,425.08 390.5,436.5C 379.833,437.833 369.167,437.833 358.5,436.5C 352.198,424.894 346.198,413.227 340.5,401.5 Z"/></g>
<g><path style="opacity:0.93" fill="#000000" d="M 384.5,401.5 C 397.5,401.5 410.5,401.5 423.5,401.5C 423.5,413.5 423.5,425.5 423.5,437.5C 416.468,437.83 409.468,437.497 402.5,436.5C 395.687,425.207 389.687,413.541 384.5,401.5 Z"/></g>
<g><path style="opacity:0.968" fill="#000000" d="M 87.5,448.5 C 106.167,448.5 124.833,448.5 143.5,448.5C 143.5,458.167 143.5,467.833 143.5,477.5C 124.833,477.5 106.167,477.5 87.5,477.5C 87.5,467.833 87.5,458.167 87.5,448.5 Z"/></g>
<g><path style="opacity:0.97" fill="#000000" d="M 154.5,448.5 C 221.833,448.5 289.167,448.5 356.5,448.5C 356.5,458.167 356.5,467.833 356.5,477.5C 289.167,477.5 221.833,477.5 154.5,477.5C 154.5,467.833 154.5,458.167 154.5,448.5 Z"/></g>
<g><path style="opacity:0.968" fill="#000000" d="M 367.5,448.5 C 386.167,448.5 404.833,448.5 423.5,448.5C 423.5,458.167 423.5,467.833 423.5,477.5C 404.833,477.5 386.167,477.5 367.5,477.5C 367.5,467.833 367.5,458.167 367.5,448.5 Z"/></g>
</svg>
