<?xml version="1.0" encoding="UTF-8"?>
<!DOCTYPE svg PUBLIC "-//W3C//DTD SVG 1.1//EN" "http://www.w3.org/Graphics/SVG/1.1/DTD/svg11.dtd">
<svg xmlns="http://www.w3.org/2000/svg" version="1.1" width="512px" height="512px" style="shape-rendering:geometricPrecision; text-rendering:geometricPrecision; image-rendering:optimizeQuality; fill-rule:evenodd; clip-rule:evenodd" xmlns:xlink="http://www.w3.org/1999/xlink">
<g><path style="opacity:0.976" fill="#000000" d="M 18.5,96.5 C 49.2138,94.9492 78.2138,101.116 105.5,115C 110.324,122.443 110.824,130.277 107,138.5C 92.3333,186.5 77.6667,234.5 63,282.5C 60.8759,286.313 57.7092,288.813 53.5,290C 41.8381,290.5 30.1714,290.667 18.5,290.5C 18.5,225.833 18.5,161.167 18.5,96.5 Z"/></g>
<g><path style="opacity:0.979" fill="#000000" d="M 258.5,118.5 C 266.651,118.009 274.651,118.842 282.5,121C 316.844,134.447 351.01,148.28 385,162.5C 400.402,204.872 415.902,247.205 431.5,289.5C 425.745,300.426 416.911,307.426 405,310.5C 402.62,309.799 400.453,308.633 398.5,307C 356.133,267.631 313.466,228.631 270.5,190C 255.152,191.504 241.486,197.171 229.5,207C 224.5,211.333 219.5,215.667 214.5,220C 203.745,226.728 192.412,228.061 180.5,224C 172.58,216.66 170.414,207.826 174,197.5C 187.78,165.717 209.946,141.55 240.5,125C 246.435,122.303 252.435,120.136 258.5,118.5 Z"/></g>
<g><path style="opacity:0.977" fill="#000000" d="M 475.5,119.5 C 481.189,119.532 486.855,119.866 492.5,120.5C 492.5,185.167 492.5,249.833 492.5,314.5C 481.495,314.667 470.495,314.5 459.5,314C 454.573,313.786 450.739,311.619 448,307.5C 427.973,255.12 408.807,202.453 390.5,149.5C 391.42,140.408 396.42,134.908 405.5,133C 428.32,125.068 451.653,120.568 475.5,119.5 Z"/></g>
<g><path style="opacity:0.979" fill="#000000" d="M 114.5,141.5 C 143.835,141.333 173.169,141.5 202.5,142C 187.612,155.948 175.779,172.115 167,190.5C 160.567,206.101 163.4,219.601 175.5,231C 185.522,236.14 195.855,236.807 206.5,233C 212.112,230.861 217.446,228.194 222.5,225C 231.928,215.116 242.928,207.449 255.5,202C 259.743,200.221 264.077,199.221 268.5,199C 311.951,238.15 355.118,277.65 398,317.5C 405.365,330.541 402.532,340.708 389.5,348C 383.606,349.037 377.939,348.371 372.5,346C 349.5,323.667 326.5,301.333 303.5,279C 298.138,276.109 295.638,277.609 296,283.5C 316.028,303.862 336.362,323.862 357,343.5C 363.157,358.048 358.991,368.214 344.5,374C 339.303,374.867 334.303,374.2 329.5,372C 308.859,351.692 288.526,331.025 268.5,310C 263.504,309.336 261.67,311.502 263,316.5C 279,333.167 295,349.833 311,366.5C 317.149,379.418 313.983,389.251 301.5,396C 294.751,397.331 288.418,396.331 282.5,393C 264.5,375 246.5,357 228.5,339C 223.504,338.336 221.67,340.502 223,345.5C 237.667,360.167 252.333,374.833 267,389.5C 272.954,406.875 266.788,415.042 248.5,414C 185.947,370.975 128.947,321.142 77.5,264.5C 90.445,223.667 102.778,182.667 114.5,141.5 Z"/></g>
</svg>
