<?xml version="1.0" standalone="no"?>
<!DOCTYPE svg PUBLIC "-//W3C//DTD SVG 20010904//EN"
 "http://www.w3.org/TR/2001/REC-SVG-20010904/DTD/svg10.dtd">
<svg version="1.0" xmlns="http://www.w3.org/2000/svg"
 width="512.000000pt" height="512.000000pt" viewBox="0 0 512.000000 512.000000"
 preserveAspectRatio="xMidYMid meet">

<g transform="translate(0.000000,512.000000) scale(0.100000,-0.100000)"
fill="#000000" stroke="none">
<path d="M4469 5071 c-33 -33 -39 -45 -39 -81 0 -41 5 -48 95 -140 l96 -97
-73 -78 -73 -78 -170 6 c-125 5 -177 3 -197 -6 -14 -6 -177 -155 -361 -330
-247 -235 -349 -325 -388 -344 -41 -20 -109 -81 -282 -255 l-227 -228 -47 0
-47 0 -160 -160 -161 -159 -5 -69 -5 -69 -503 -462 c-276 -254 -509 -472 -516
-484 -8 -13 -19 -73 -25 -142 -7 -66 -14 -137 -17 -157 -5 -34 -48 -75 -544
-522 -296 -267 -549 -499 -564 -516 -51 -62 -60 -194 -18 -275 31 -60 347
-370 402 -394 73 -33 158 -25 227 21 42 29 99 102 343 443 259 360 448 615
457 615 5 0 23 -29 42 -65 38 -75 102 -136 159 -153 94 -29 193 -11 385 70
141 59 197 104 197 157 0 18 -27 97 -60 176 l-61 143 52 53 c117 122 202 265
215 365 l6 53 57 -38 c281 -190 638 -353 869 -397 112 -21 240 -21 287 2 61
29 65 48 65 341 0 238 -2 260 -20 290 -27 44 -55 60 -125 68 -300 34 -644 174
-784 319 l-34 35 229 238 c126 131 344 355 485 498 275 278 283 290 256 356
l-14 34 500 504 c275 278 508 519 518 535 24 39 24 93 1 126 -19 29 -232 235
-276 268 -18 14 -43 22 -69 22 -32 0 -46 -7 -78 -39z m-496 -973 c-259 -259
-274 -272 -290 -255 -21 20 -53 -15 286 306 153 145 241 221 255 221 15 0 -53
-74 -251 -272z m-1613 -2218 c0 -20 -38 -85 -84 -144 l-46 -59 -20 44 c-11 24
-19 49 -19 54 1 18 124 114 147 115 12 0 22 -5 22 -10z"/>
</g>
</svg>
