<?xml version="1.0" standalone="no"?>
<!DOCTYPE svg PUBLIC "-//W3C//DTD SVG 20010904//EN"
 "http://www.w3.org/TR/2001/REC-SVG-20010904/DTD/svg10.dtd">
<svg version="1.0" xmlns="http://www.w3.org/2000/svg"
 width="512.000000pt" height="512.000000pt" viewBox="0 0 512.000000 512.000000"
 preserveAspectRatio="xMidYMid meet">

<g transform="translate(0.000000,512.000000) scale(0.100000,-0.100000)"
fill="#000000" stroke="none">
<path d="M4468 4343 l-138 -137 -42 -128 -43 -128 173 -172 172 -173 128 43
128 42 137 138 137 139 0 113 0 114 -143 143 -143 143 -114 0 -113 0 -139
-137z m307 -208 c16 -15 25 -36 25 -55 0 -19 -9 -40 -25 -55 -15 -16 -36 -25
-55 -25 -19 0 -40 9 -55 25 -16 15 -25 36 -25 55 0 19 9 40 25 55 15 16 36 25
55 25 19 0 40 -9 55 -25z"/>
<path d="M3582 3297 c-298 -298 -542 -547 -542 -552 0 -13 332 -345 345 -345
6 0 254 244 553 543 l542 542 -178 178 -177 177 -543 -543z"/>
<path d="M1295 2786 c-37 -16 -70 -52 -84 -89 -7 -19 -11 -220 -11 -603 l0
-574 72 0 73 0 87 87 88 88 0 392 0 393 233 0 232 0 80 -80 80 -80 107 107
c60 59 108 112 108 118 0 16 -212 221 -247 239 -28 14 -83 16 -410 16 -293 -1
-385 -4 -408 -14z"/>
<path d="M2765 2711 c-11 -5 -285 -275 -610 -600 l-590 -591 595 0 595 0 303
303 c278 279 302 305 302 337 0 31 -21 55 -257 292 -266 266 -287 282 -338
259z m170 -416 c50 -49 15 -135 -55 -135 -41 0 -80 39 -80 80 0 41 39 80 80
80 19 0 40 -9 55 -25z m-240 -240 c50 -49 15 -135 -55 -135 -41 0 -80 39 -80
80 0 41 39 80 80 80 19 0 40 -9 55 -25z m-240 -240 c50 -49 15 -135 -55 -135
-19 0 -40 9 -55 25 -16 15 -25 36 -25 55 0 19 9 40 25 55 15 16 36 25 55 25
19 0 40 -9 55 -25z"/>
<path d="M3545 1905 c-305 -67 -520 -349 -502 -660 10 -164 70 -298 187 -415
36 -36 91 -80 122 -98 252 -149 568 -111 772 93 123 122 183 253 193 420 24
418 -363 750 -772 660z m286 -346 c67 -36 98 -68 137 -143 22 -43 26 -64 26
-136 1 -78 -2 -90 -33 -148 -38 -70 -70 -100 -145 -140 -43 -22 -64 -26 -136
-26 -72 0 -93 4 -136 26 -75 40 -107 70 -145 140 -31 58 -34 70 -33 148 0 72
4 93 26 136 38 73 69 106 129 139 71 38 102 45 182 40 51 -3 81 -11 128 -36z"/>
<path d="M3615 1426 c-101 -44 -125 -178 -46 -257 65 -65 157 -65 222 0 124
124 -15 327 -176 257z"/>
<path d="M849 1337 c-24 -13 -212 -110 -416 -216 -248 -128 -381 -203 -398
-222 -89 -106 6 -276 144 -256 20 3 204 93 409 201 l373 196 199 0 200 0 0
160 0 160 -234 0 c-225 0 -235 -1 -277 -23z"/>
<path d="M1520 1183 l0 -177 103 -103 103 -103 657 0 656 0 -39 63 c-75 119
-119 276 -120 425 l0 72 -680 0 -680 0 0 -177z"/>
</g>
</svg>
