<?xml version="1.0" standalone="no"?>
<!DOCTYPE svg PUBLIC "-//W3C//DTD SVG 20010904//EN"
 "http://www.w3.org/TR/2001/REC-SVG-20010904/DTD/svg10.dtd">
<svg version="1.0" xmlns="http://www.w3.org/2000/svg"
 width="512.000000pt" height="512.000000pt" viewBox="0 0 512.000000 512.000000"
 preserveAspectRatio="xMidYMid meet">

<g transform="translate(0.000000,512.000000) scale(0.100000,-0.100000)"
fill="#000000" stroke="none">
<path d="M25 5095 c-14 -13 -25 -32 -25 -42 0 -38 232 -1179 243 -1195 10 -14
1450 -1236 1476 -1252 5 -4 71 67 147 156 75 90 146 173 158 186 l20 23 -257
257 c-230 230 -257 261 -257 290 0 42 30 72 72 72 29 0 59 -26 285 -252 154
-154 256 -249 261 -243 16 17 286 340 300 356 11 14 -68 111 -578 715 -325
385 -599 704 -608 711 -16 11 -1157 243 -1195 243 -10 0 -29 -11 -42 -25z"/>
<path d="M4455 5005 c-308 -62 -570 -117 -582 -121 -13 -5 -558 -641 -1212
-1414 l-1189 -1405 121 -123 122 -122 885 885 c959 959 910 915 965 860 55
-55 99 -6 -860 -965 l-885 -885 122 -122 123 -122 1400 1185 c770 651 1405
1192 1412 1202 11 16 243 1157 243 1195 0 28 -45 67 -77 66 -15 -1 -280 -52
-588 -114z"/>
<path d="M3230 2263 c-74 -63 -136 -118 -138 -122 -1 -3 69 -77 156 -164 l157
-157 122 122 121 123 -131 154 c-73 85 -136 156 -142 157 -5 2 -71 -49 -145
-113z"/>
<path d="M910 2191 c-54 -17 -89 -43 -189 -145 -88 -88 -104 -110 -104 -136 0
-28 63 -95 631 -662 574 -575 633 -631 663 -631 28 0 47 15 144 114 93 95 115
123 130 167 22 69 17 161 -13 222 -15 32 -161 185 -524 546 -453 452 -508 503
-552 518 -51 17 -142 20 -186 7z"/>
<path d="M4020 2183 c-38 -13 -119 -89 -548 -517 -361 -360 -509 -514 -525
-546 -31 -65 -35 -160 -8 -230 17 -45 41 -76 130 -164 93 -93 114 -109 141
-109 28 0 95 63 662 631 568 567 631 634 631 662 0 27 -16 48 -109 141 -87 87
-120 113 -162 129 -63 24 -148 25 -212 3z"/>
<path d="M2822 1917 l-144 -122 40 -36 c23 -20 108 -92 190 -162 l149 -125
121 121 122 122 -163 163 c-89 89 -164 162 -167 162 -3 -1 -70 -56 -148 -123z"/>
<path d="M756 1051 l-238 -239 60 -32 c76 -40 162 -126 202 -202 l32 -60 239
238 239 239 -147 147 c-81 82 -148 148 -148 148 0 0 -108 -107 -239 -239z"/>
<path d="M3977 1142 l-147 -147 239 -239 239 -238 32 60 c17 33 56 85 87 115
30 31 82 70 115 87 l60 32 -238 239 c-131 132 -239 239 -239 239 0 0 -67 -66
-148 -148z"/>
<path d="M265 681 c-100 -27 -188 -99 -232 -190 -24 -49 -27 -68 -27 -146 0
-70 5 -101 22 -138 30 -66 104 -142 171 -174 48 -24 68 -27 146 -27 78 0 98 3
146 27 67 32 141 108 171 174 17 37 22 68 22 138 0 78 -3 97 -27 146 -33 68
-109 142 -174 170 -52 23 -169 33 -218 20z"/>
<path d="M4676 674 c-115 -37 -196 -119 -230 -234 -54 -182 49 -369 234 -424
71 -21 125 -20 203 4 83 26 160 93 202 177 26 51 29 68 29 148 0 78 -3 98 -27
146 -33 68 -109 142 -174 170 -64 28 -173 34 -237 13z"/>
</g>
</svg>
