<?xml version="1.0" encoding="UTF-8"?>
<!DOCTYPE svg PUBLIC "-//W3C//DTD SVG 1.1//EN" "http://www.w3.org/Graphics/SVG/1.1/DTD/svg11.dtd">
<svg xmlns="http://www.w3.org/2000/svg" version="1.1" width="512px" height="512px" style="shape-rendering:geometricPrecision; text-rendering:geometricPrecision; image-rendering:optimizeQuality; fill-rule:evenodd; clip-rule:evenodd" xmlns:xlink="http://www.w3.org/1999/xlink">
<g><path style="opacity:0.934" fill="#000000" d="M 471.5,15.5 C 482.075,15.2049 489.575,19.8716 494,29.5C 495.199,32.7256 495.699,36.059 495.5,39.5C 489.833,39.5 484.167,39.5 478.5,39.5C 478.5,34.8333 476.167,32.5 471.5,32.5C 471.5,26.8333 471.5,21.1667 471.5,15.5 Z"/></g>
<g><path style="opacity:0.899" fill="#000000" d="M 32.5,17.5 C 37.0719,20.5633 41.2385,24.23 45,28.5C 45.6667,29.1667 45.6667,29.8333 45,30.5C 41.9838,33.3489 39.1504,36.3489 36.5,39.5C 41.5,44.8333 46.5,50.1667 51.5,55.5C 46.5,60.8333 41.5,66.1667 36.5,71.5C 41.5,76.8333 46.5,82.1667 51.5,87.5C 44.5,95.1667 37.1667,102.5 29.5,109.5C 25.1667,105.833 21.1667,101.833 17.5,97.5C 20.5,94.1667 23.5,90.8333 26.5,87.5C 21.5,82.1667 16.5,76.8333 11.5,71.5C 16.5,66.1667 21.5,60.8333 26.5,55.5C 21.5,50.1667 16.5,44.8333 11.5,39.5C 18.5215,32.1461 25.5215,24.8128 32.5,17.5 Z"/></g>
<g><path style="opacity:0.92" fill="#000000" d="M 430.5,31.5 C 451.815,28.5723 467.315,36.5723 477,55.5C 478.962,60.6557 479.795,65.989 479.5,71.5C 473.833,71.5 468.167,71.5 462.5,71.5C 461.994,60.1539 456.327,52.6539 445.5,49C 439.197,47.8571 433.197,48.6904 427.5,51.5C 424.215,47.038 421.548,42.2047 419.5,37C 422.787,34.3001 426.454,32.4668 430.5,31.5 Z"/></g>
<g><path style="opacity:0.954" fill="#000000" d="M 330.5,33.5 C 379.947,57.3901 428.947,82.0568 477.5,107.5C 463.833,134.833 450.167,162.167 436.5,189.5C 435.833,189.833 435.167,190.167 434.5,190.5C 425.312,188.245 416.145,185.911 407,183.5C 399.098,188.536 391.264,193.703 383.5,199C 366.833,199.333 350.167,199.667 333.5,200C 349.167,215.667 364.833,231.333 380.5,247C 389.366,246.029 398.199,244.529 407,242.5C 407.833,242.833 408.667,243.167 409.5,243.5C 389.106,287.288 368.44,330.954 347.5,374.5C 322.175,375.5 296.842,375.833 271.5,375.5C 271.333,351.498 271.5,327.498 272,303.5C 273,304.167 274,304.833 275,305.5C 285.054,285.224 295.221,265.058 305.5,245C 294.817,238.657 283.817,232.824 272.5,227.5C 271.335,219.521 271.168,211.521 272,203.5C 286.333,210.833 300.667,218.167 315,225.5C 325.054,205.224 335.221,185.058 345.5,165C 330.935,156.799 316.102,148.966 301,141.5C 291.078,160.344 281.411,179.344 272,198.5C 271.333,185.167 271.333,171.833 272,158.5C 292.058,117.053 311.558,75.3859 330.5,33.5 Z M 340.5,61.5 C 355.788,68.8105 370.788,76.6438 385.5,85C 375.205,105.089 365.039,125.256 355,145.5C 339.902,138.036 325.068,130.202 310.5,122C 320.378,101.745 330.378,81.5784 340.5,61.5 Z M 404.5,93.5 C 419.82,100.826 434.82,108.659 449.5,117C 439.205,137.089 429.039,157.256 419,177.5C 403.902,170.036 389.068,162.202 374.5,154C 384.378,133.745 394.378,113.578 404.5,93.5 Z M 332.5,253.5 C 347.788,260.811 362.788,268.644 377.5,277C 367.19,297.12 357.023,317.287 347,337.5C 331.902,330.036 317.068,322.202 302.5,314C 312.378,293.745 322.378,273.578 332.5,253.5 Z"/></g>
<g><path style="opacity:0.994" fill="#000000" d="M 79.5,47.5 C 138.167,47.5 196.833,47.5 255.5,47.5C 255.5,156.833 255.5,266.167 255.5,375.5C 238.83,375.333 222.163,375.5 205.5,376C 216.014,386.347 226.348,396.847 236.5,407.5C 224.5,420.167 212.167,432.5 199.5,444.5C 194.833,440.5 190.5,436.167 186.5,431.5C 194.167,423.5 201.833,415.5 209.5,407.5C 199.348,396.847 189.014,386.347 178.5,376C 145.502,375.5 112.502,375.333 79.5,375.5C 79.5,362.167 79.5,348.833 79.5,335.5C 93.8372,335.667 108.171,335.5 122.5,335C 127.5,330 132.5,325 137.5,320C 145.833,319.667 154.167,319.333 162.5,319C 166.667,314.833 170.833,310.667 175,306.5C 175.5,313.492 175.666,320.492 175.5,327.5C 194.167,327.5 212.833,327.5 231.5,327.5C 231.5,303.5 231.5,279.5 231.5,255.5C 223.5,255.5 215.5,255.5 207.5,255.5C 207.823,251.774 207.489,248.107 206.5,244.5C 186.167,253.167 165.833,261.833 145.5,270.5C 139.5,264.833 133.5,259.167 127.5,253.5C 118.681,261.819 110.014,270.319 101.5,279C 94.1742,279.5 86.8409,279.666 79.5,279.5C 79.5,202.167 79.5,124.833 79.5,47.5 Z M 103.5,63.5 C 119.5,63.5 135.5,63.5 151.5,63.5C 151.5,87.5 151.5,111.5 151.5,135.5C 135.5,135.5 119.5,135.5 103.5,135.5C 103.5,111.5 103.5,87.5 103.5,63.5 Z M 183.5,63.5 C 199.5,63.5 215.5,63.5 231.5,63.5C 231.5,87.5 231.5,111.5 231.5,135.5C 215.5,135.5 199.5,135.5 183.5,135.5C 183.5,111.5 183.5,87.5 183.5,63.5 Z M 103.5,159.5 C 119.5,159.5 135.5,159.5 151.5,159.5C 151.5,183.5 151.5,207.5 151.5,231.5C 135.5,231.5 119.5,231.5 103.5,231.5C 103.5,207.5 103.5,183.5 103.5,159.5 Z M 183.5,159.5 C 199.5,159.5 215.5,159.5 231.5,159.5C 231.5,183.5 231.5,207.5 231.5,231.5C 215.5,231.5 199.5,231.5 183.5,231.5C 183.5,207.5 183.5,183.5 183.5,159.5 Z"/></g>
<g><path style="opacity:1" fill="#000000" d="M 119.5,79.5 C 124.833,79.5 130.167,79.5 135.5,79.5C 135.5,92.8333 135.5,106.167 135.5,119.5C 130.167,119.5 124.833,119.5 119.5,119.5C 119.5,106.167 119.5,92.8333 119.5,79.5 Z"/></g>
<g><path style="opacity:1" fill="#000000" d="M 199.5,79.5 C 204.833,79.5 210.167,79.5 215.5,79.5C 215.5,92.8333 215.5,106.167 215.5,119.5C 210.167,119.5 204.833,119.5 199.5,119.5C 199.5,106.167 199.5,92.8333 199.5,79.5 Z"/></g>
<g><path style="opacity:0.91" fill="#000000" d="M 346.5,81.5 C 352.807,84.6534 359.14,87.8201 365.5,91C 359.628,102.579 353.628,114.079 347.5,125.5C 341.143,122.658 335.143,119.325 329.5,115.5C 335.18,104.14 340.847,92.8068 346.5,81.5 Z"/></g>
<g><path style="opacity:0.909" fill="#000000" d="M 410.5,113.5 C 416.807,116.653 423.14,119.82 429.5,123C 423.628,134.579 417.628,146.079 411.5,157.5C 405.143,154.658 399.143,151.325 393.5,147.5C 399.18,136.14 404.847,124.807 410.5,113.5 Z"/></g>
<g><path style="opacity:0.91" fill="#000000" d="M 306.5,161.5 C 312.807,164.653 319.14,167.82 325.5,171C 319.628,182.579 313.628,194.079 307.5,205.5C 301.143,202.658 295.143,199.325 289.5,195.5C 295.18,184.14 300.847,172.807 306.5,161.5 Z"/></g>
<g><path style="opacity:1" fill="#000000" d="M 119.5,175.5 C 124.833,175.5 130.167,175.5 135.5,175.5C 135.5,188.833 135.5,202.167 135.5,215.5C 130.167,215.5 124.833,215.5 119.5,215.5C 119.5,202.167 119.5,188.833 119.5,175.5 Z"/></g>
<g><path style="opacity:1" fill="#000000" d="M 199.5,175.5 C 204.833,175.5 210.167,175.5 215.5,175.5C 215.5,188.833 215.5,202.167 215.5,215.5C 210.167,215.5 204.833,215.5 199.5,215.5C 199.5,202.167 199.5,188.833 199.5,175.5 Z"/></g>
<g><path style="opacity:0.879" fill="#000000" d="M 40.5,193.5 C 45.4194,196.748 49.7528,200.748 53.5,205.5C 48.5,211.167 43.1667,216.5 37.5,221.5C 33.1667,217.833 29.1667,213.833 25.5,209.5C 30.5217,204.146 35.5217,198.813 40.5,193.5 Z"/></g>
<g><path style="opacity:0.851" fill="#000000" d="M 271.5,243.5 C 276.5,245.664 281.167,248.331 285.5,251.5C 281,260.5 276.5,269.5 272,278.5C 271.5,266.838 271.333,255.171 271.5,243.5 Z"/></g>
<g><path style="opacity:0.848" fill="#000000" d="M 467.5,254.5 C 471.479,257.812 475.146,261.479 478.5,265.5C 475.228,273.059 471.228,280.059 466.5,286.5C 462.398,285.642 458.398,284.475 454.5,283C 457,280.5 459.5,278 462,275.5C 463.994,268.525 465.827,261.525 467.5,254.5 Z"/></g>
<g><path style="opacity:0.983" fill="#000000" d="M 207.5,271.5 C 210.167,271.5 212.833,271.5 215.5,271.5C 215.5,284.833 215.5,298.167 215.5,311.5C 207.5,311.5 199.5,311.5 191.5,311.5C 191.334,304.159 191.5,296.826 192,289.5C 197,284.5 202,279.5 207,274.5C 207.483,273.552 207.649,272.552 207.5,271.5 Z"/></g>
<g><path style="opacity:0.91" fill="#000000" d="M 338.5,273.5 C 344.807,276.653 351.14,279.82 357.5,283C 351.628,294.579 345.628,306.079 339.5,317.5C 333.143,314.658 327.143,311.325 321.5,307.5C 327.18,296.14 332.847,284.807 338.5,273.5 Z"/></g>
<g><path style="opacity:0.855" fill="#000000" d="M 27.5,313.5 C 28.552,313.351 29.552,313.517 30.5,314C 35.6818,319.015 40.6818,324.181 45.5,329.5C 41.8333,333.833 37.8333,337.833 33.5,341.5C 27.6366,336.471 22.3033,330.971 17.5,325C 20.6561,321.011 23.9894,317.177 27.5,313.5 Z"/></g>
<g><path style="opacity:0.857" fill="#000000" d="M 428.5,323.5 C 429.675,323.281 430.675,323.614 431.5,324.5C 433.97,329.272 436.303,334.106 438.5,339C 438.355,339.772 438.022,340.439 437.5,341C 433.167,343.167 428.833,345.333 424.5,347.5C 421.009,342.526 418.009,337.192 415.5,331.5C 419.694,328.571 424.027,325.905 428.5,323.5 Z"/></g>
<g><path style="opacity:0.856" fill="#000000" d="M 475.5,337.5 C 476.552,337.351 477.552,337.517 478.5,338C 483.682,343.015 488.682,348.181 493.5,353.5C 489.833,357.833 485.833,361.833 481.5,365.5C 475.637,360.471 470.303,354.971 465.5,349C 468.656,345.011 471.989,341.177 475.5,337.5 Z"/></g>
<g><path style="opacity:0.994" fill="#000000" d="M 31.5,391.5 C 78.8345,391.333 126.168,391.5 173.5,392C 178.682,397.015 183.682,402.181 188.5,407.5C 180.833,415.5 173.167,423.5 165.5,431.5C 173.167,439.5 180.833,447.5 188.5,455.5C 182.682,461.819 176.682,467.986 170.5,474C 172.167,475.667 173.833,477.333 175.5,479C 127.501,479.5 79.5012,479.667 31.5,479.5C 31.5,460.833 31.5,442.167 31.5,423.5C 74.1667,423.5 116.833,423.5 159.5,423.5C 159.5,418.167 159.5,412.833 159.5,407.5C 116.833,407.5 74.1667,407.5 31.5,407.5C 31.5,402.167 31.5,396.833 31.5,391.5 Z"/></g>
<g><path style="opacity:0.99" fill="#000000" d="M 242.5,392.5 C 288.332,391.335 334.332,391.168 380.5,392C 375.318,397.015 370.318,402.181 365.5,407.5C 375.833,418.167 386.167,428.833 396.5,439.5C 389.848,446.652 383.015,453.652 376,460.5C 375.5,466.825 375.334,473.158 375.5,479.5C 312.499,479.667 249.499,479.5 186.5,479C 204.833,460.667 223.167,442.333 241.5,424C 278.165,423.5 314.832,423.333 351.5,423.5C 351.5,418.167 351.5,412.833 351.5,407.5C 320.165,407.667 288.832,407.5 257.5,407C 252.631,401.963 247.631,397.13 242.5,392.5 Z"/></g>
<g><path style="opacity:0.99" fill="#000000" d="M 401.5,391.5 C 427.5,391.5 453.5,391.5 479.5,391.5C 479.5,396.833 479.5,402.167 479.5,407.5C 458.167,407.5 436.833,407.5 415.5,407.5C 415.5,412.833 415.5,418.167 415.5,423.5C 436.833,423.5 458.167,423.5 479.5,423.5C 479.5,442.167 479.5,460.833 479.5,479.5C 450.167,479.5 420.833,479.5 391.5,479.5C 391.334,474.821 391.501,470.155 392,465.5C 400.681,456.986 409.181,448.319 417.5,439.5C 407.167,428.833 396.833,418.167 386.5,407.5C 391.522,402.146 396.522,396.813 401.5,391.5 Z"/></g>
</svg>
