<?xml version="1.0" standalone="no"?>
<!DOCTYPE svg PUBLIC "-//W3C//DTD SVG 20010904//EN"
 "http://www.w3.org/TR/2001/REC-SVG-20010904/DTD/svg10.dtd">
<svg version="1.0" xmlns="http://www.w3.org/2000/svg"
 width="256.000000pt" height="256.000000pt" viewBox="0 0 256.000000 256.000000"
 preserveAspectRatio="xMidYMid meet">

<g transform="translate(0.000000,256.000000) scale(0.100000,-0.100000)"
fill="#000000" stroke="none">
<path d="M2290 2356 c-99 -28 -221 -99 -308 -180 -37 -34 -65 -48 -132 -69
-133 -41 -284 -138 -436 -280 l-73 -68 -378 55 -378 54 -85 -84 -85 -84 193
-193 c105 -106 192 -195 192 -199 0 -3 -100 -4 -222 -1 l-223 5 -84 -86 c-47
-47 -83 -87 -80 -89 2 -2 92 -39 199 -83 168 -68 202 -86 246 -126 l51 -48 23
25 c13 14 27 25 31 25 18 0 25 -65 16 -155 -2 -18 4 -19 79 -16 94 3 109 -7
70 -48 l-26 -27 44 -43 c39 -38 55 -70 127 -245 45 -111 84 -203 86 -205 2 -3
42 33 89 80 l86 84 -5 223 c-3 122 -2 222 1 222 4 0 93 -87 199 -192 l193
-193 84 85 84 85 -54 378 -55 378 68 73 c142 152 234 296 278 433 23 70 38 99
76 141 91 100 164 238 184 345 8 43 2 44 -75 23z"/>
</g>
</svg>
