<?xml version="1.0" standalone="no"?>
<!DOCTYPE svg PUBLIC "-//W3C//DTD SVG 20010904//EN"
 "http://www.w3.org/TR/2001/REC-SVG-20010904/DTD/svg10.dtd">
<svg version="1.0" xmlns="http://www.w3.org/2000/svg"
 width="693.000000pt" height="258.000000pt" viewBox="0 0 693.000000 258.000000"
 preserveAspectRatio="xMidYMid meet">

<g transform="translate(0.000000,258.000000) scale(0.100000,-0.100000)"
fill="#ffce1b" stroke="none">
<path d="M1273 2102 c-101 -36 -181 -110 -225 -208 -17 -38 -23 -77 -29 -179
-3 -71 -11 -146 -18 -165 -6 -19 -11 -47 -11 -63 0 -38 40 -77 79 -77 24 0 36
-9 61 -45 17 -24 38 -48 46 -53 12 -7 16 -25 16 -73 1 -74 12 -68 -167 -99
-66 -12 -138 -30 -161 -41 -55 -26 -112 -84 -136 -138 -18 -40 -67 -325 -68
-393 l0 -28 740 0 740 0 0 28 c-1 68 -50 353 -68 393 -24 54 -81 112 -136 138
-23 11 -97 30 -166 42 -176 31 -170 27 -170 94 0 44 4 59 21 73 11 9 34 36 50
60 24 33 36 42 60 42 39 0 79 39 79 77 0 16 -5 44 -11 63 -7 19 -15 94 -18
165 -6 111 -11 139 -33 187 -34 74 -112 152 -186 186 -76 35 -211 42 -289 14z
m-8 -112 c8 -49 -6 -70 -45 -70 -15 0 -46 -7 -69 -15 -25 -9 -41 -10 -41 -4 0
16 117 129 133 129 10 0 18 -14 22 -40z m249 12 c2 -4 -11 -6 -30 -4 -19 2
-34 6 -34 8 0 8 59 4 64 -4z m95 -31 c-2 -6 -10 2 -17 17 -11 25 -11 25 4 10
9 -9 15 -21 13 -27z m-272 -18 c-3 -10 -5 -4 -5 12 0 17 2 24 5 18 2 -7 2 -21
0 -30z m66 2 c-3 -9 -8 -14 -10 -11 -3 3 -2 9 2 15 9 16 15 13 8 -4z m164 -52
c-3 -10 -5 -4 -5 12 0 17 2 24 5 18 2 -7 2 -21 0 -30z m30 -10 c-3 -10 -5 -2
-5 17 0 19 2 27 5 18 2 -10 2 -26 0 -35z m-276 14 c-10 -9 -11 -8 -5 6 3 10 9
15 12 12 3 -3 0 -11 -7 -18z m379 -28 c0 -5 -4 -9 -8 -9 -15 0 -32 24 -32 45
1 19 1 19 20 -4 11 -13 20 -27 20 -32z m-313 9 c-3 -8 -6 -5 -6 6 -1 11 2 17
5 13 3 -3 4 -12 1 -19z m-102 -18 c-3 -5 -12 -10 -18 -10 -7 0 -6 4 3 10 19
12 23 12 15 0z m-47 -17 c-10 -2 -26 -2 -35 0 -10 3 -2 5 17 5 19 0 27 -2 18
-5z m365 -23 c9 -11 13 -20 7 -20 -5 0 -14 9 -20 20 -6 11 -9 20 -8 20 2 0 11
-9 21 -20z m-233 0 c0 -6 -31 -9 -77 -8 l-78 2 75 6 c41 4 76 7 78 8 1 1 2 -2
2 -8z m295 -18 c-3 -3 -11 0 -18 7 -9 10 -8 11 6 5 10 -3 15 -9 12 -12z m55
-11 c0 -5 -9 -7 -20 -4 -11 3 -20 7 -20 9 0 2 9 4 20 4 11 0 20 -4 20 -9z
m-150 -151 c13 -7 30 -44 50 -107 16 -54 30 -102 30 -108 0 -34 -129 -144
-137 -118 -2 6 -9 18 -16 27 -11 15 -15 15 -54 0 -40 -16 -46 -16 -85 0 -40
15 -44 15 -55 0 -7 -9 -14 -22 -16 -28 -6 -18 -84 40 -113 83 l-25 39 31 101
c18 59 38 105 48 110 23 14 318 14 342 1z m-300 -421 c0 -14 12 -25 37 -36 78
-32 223 -9 223 36 0 11 5 23 10 26 6 4 10 -13 10 -43 l0 -50 -47 -16 c-64 -22
-158 -20 -210 4 -42 18 -43 21 -43 65 0 28 4 44 10 40 6 -3 10 -15 10 -26z
m-220 -359 c-11 -21 -36 -26 -60 -10 -11 7 -16 34 -18 109 -4 98 -3 100 20
105 67 15 63 21 66 -86 1 -56 -2 -107 -8 -118z m753 205 c27 -5 27 -6 27 -88
0 -105 -6 -126 -38 -134 -41 -10 -52 17 -52 133 0 112 -6 104 63 89z m-108
-225 c3 -11 18 -28 31 -39 l26 -20 -84 -3 -83 -3 -3 -97 -3 -98 -33 0 c-31 0
-34 3 -40 38 -3 20 -6 65 -6 100 l0 62 -100 0 -100 0 0 -62 c0 -35 -3 -80 -6
-100 -6 -35 -9 -38 -40 -38 l-33 0 -3 98 -3 97 -78 3 -78 3 25 30 c15 17 26
35 26 40 0 5 119 9 289 9 280 0 290 -1 296 -20z m-683 -161 c-3 -90 -5 -99
-23 -99 -18 0 -19 8 -19 104 0 102 0 103 23 99 21 -4 22 -7 19 -104z m818 6
c0 -98 -1 -105 -20 -105 -18 0 -20 7 -20 84 0 46 -3 91 -6 99 -4 11 2 17 18
20 13 2 24 5 26 6 1 0 2 -46 2 -104z m-103 -32 c-2 -16 -4 -5 -4 22 0 28 2 40
4 28 2 -13 2 -35 0 -50z"/>
<path d="M3346 2095 c-71 -29 -119 -66 -167 -129 -53 -70 -71 -130 -81 -279
-4 -73 -11 -153 -14 -179 -5 -41 -3 -50 20 -72 15 -16 36 -26 55 -26 22 0 34
-8 50 -33 11 -18 31 -43 45 -56 23 -21 26 -33 26 -87 l0 -62 -142 -27 c-165
-31 -211 -49 -261 -99 -61 -61 -76 -102 -103 -288 -13 -94 -24 -181 -24 -194
l0 -24 735 0 735 0 0 24 c0 13 -11 100 -24 194 -27 186 -42 227 -103 288 -50
50 -96 68 -260 99 l-143 27 0 62 c0 54 3 66 26 87 14 13 34 38 45 56 16 25 28
33 50 33 19 0 40 10 55 26 23 22 25 31 20 72 -3 26 -10 106 -14 179 -10 149
-28 209 -82 280 -77 102 -180 153 -308 153 -58 0 -91 -6 -136 -25z m6 -103
c12 -47 -4 -72 -48 -72 -19 0 -50 -7 -69 -14 -24 -10 -35 -11 -35 -4 0 18 118
130 131 126 7 -2 17 -19 21 -36z m65 6 c-3 -8 -6 -5 -6 6 -1 11 2 17 5 13 3
-3 4 -12 1 -19z m161 5 c-10 -2 -26 -2 -35 0 -10 3 -2 5 17 5 19 0 27 -2 18
-5z m-58 -7 c0 -2 -8 -10 -17 -17 -16 -13 -17 -12 -4 4 13 16 21 21 21 13z
m105 -16 c10 -11 16 -20 13 -20 -3 0 -13 9 -23 20 -10 11 -16 20 -13 20 3 0
13 -9 23 -20z m62 -32 c-3 -8 -6 -5 -6 6 -1 11 2 17 5 13 3 -3 4 -12 1 -19z
m-210 -40 c-3 -7 -5 -2 -5 12 0 14 2 19 5 13 2 -7 2 -19 0 -25z m292 -4 c6
-15 10 -28 8 -31 -7 -7 -37 28 -37 43 0 23 16 16 29 -12z m-359 3 c0 -2 -10
-12 -22 -23 l-23 -19 19 23 c18 21 26 27 26 19z m-87 -54 c-7 -2 -21 -2 -30 0
-10 3 -4 5 12 5 17 0 24 -2 18 -5z m392 -13 c10 -11 16 -20 13 -20 -3 0 -13 9
-23 20 -10 11 -16 20 -13 20 3 0 13 -9 23 -20z m-262 -11 c-6 -6 -42 -8 -84
-6 l-74 3 78 2 c51 1 77 6 77 14 0 6 3 8 7 5 4 -4 2 -12 -4 -18z m-193 -23 c0
-2 -7 -7 -16 -10 -8 -3 -12 -2 -9 4 6 10 25 14 25 6z m533 -3 c-7 -2 -19 -2
-25 0 -7 3 -2 5 12 5 14 0 19 -2 13 -5z m15 -49 c-3 -16 -4 -15 -18 1 -9 11
-10 16 -2 11 8 -5 12 -1 13 11 0 10 3 13 6 6 2 -7 3 -20 1 -29z m-143 -119
c14 -13 25 -30 25 -37 0 -8 11 -47 24 -88 l25 -74 -26 -35 c-46 -65 -123 -113
-123 -77 0 30 -26 38 -64 19 -32 -15 -41 -15 -69 -4 -48 19 -61 18 -72 -6 -5
-13 -15 -23 -21 -23 -19 0 -114 90 -120 114 -8 33 42 198 67 219 18 15 43 17
176 17 150 0 155 -1 178 -25z m-307 -403 c-4 -25 62 -53 125 -53 70 0 124 22
129 52 2 12 9 24 16 27 8 2 12 -10 12 -42 0 -41 -3 -47 -32 -63 -41 -22 -187
-25 -235 -4 -31 13 -33 17 -33 63 0 31 4 47 10 43 6 -4 9 -14 8 -23z m-208
-240 c0 -105 -13 -142 -50 -142 -30 0 -40 32 -40 129 l0 91 28 6 c15 3 32 7
37 9 6 2 13 4 18 4 4 1 7 -43 7 -97z m733 84 l27 -6 0 -91 c0 -97 -10 -129
-40 -129 -37 0 -50 37 -50 143 0 89 2 98 18 94 9 -3 29 -8 45 -11z m-108 -226
c4 -11 18 -28 33 -38 26 -17 26 -17 -58 -22 l-85 -5 -3 -97 -3 -98 -34 0 -34
0 -3 98 -3 97 -100 0 -100 0 -3 -97 -3 -98 -34 0 -34 0 -3 98 -3 97 -85 5
c-84 5 -84 5 -58 22 15 10 29 27 33 38 6 19 14 20 290 20 276 0 284 -1 290
-20z m-673 -161 c-3 -90 -5 -99 -23 -99 -18 0 -19 8 -19 104 0 102 0 103 23
99 21 -4 22 -7 19 -104z m818 44 c0 -102 -9 -143 -31 -143 -16 0 -18 11 -21
100 -3 106 -6 99 45 109 4 0 7 -29 7 -66z m-673 -50 c-3 -10 -5 -2 -5 17 0 19
2 27 5 18 2 -10 2 -26 0 -35z m200 -20 c-2 -16 -4 -5 -4 22 0 28 2 40 4 28 2
-13 2 -35 0 -50z m80 0 c-2 -16 -4 -5 -4 22 0 28 2 40 4 28 2 -13 2 -35 0 -50z
m200 0 c-2 -16 -4 -5 -4 22 0 28 2 40 4 28 2 -13 2 -35 0 -50z m80 0 c-2 -16
-4 -5 -4 22 0 28 2 40 4 28 2 -13 2 -35 0 -50z"/>
<path d="M5443 2102 c-101 -36 -181 -110 -225 -208 -17 -38 -23 -77 -29 -179
-3 -71 -11 -146 -18 -165 -6 -19 -11 -47 -11 -63 0 -38 40 -77 79 -77 24 0 36
-9 61 -45 17 -24 38 -48 46 -53 12 -7 16 -25 16 -73 1 -74 12 -68 -167 -99
-66 -12 -138 -30 -161 -41 -55 -26 -112 -84 -136 -138 -18 -40 -67 -325 -68
-393 l0 -28 740 0 740 0 0 28 c-1 68 -50 353 -68 393 -24 54 -81 112 -136 138
-23 11 -97 30 -166 42 -176 31 -170 27 -170 94 0 44 4 59 21 73 11 9 34 36 50
60 24 33 36 42 60 42 39 0 79 39 79 77 0 16 -5 44 -11 63 -7 19 -15 94 -18
165 -6 111 -11 139 -33 187 -34 74 -112 152 -186 186 -76 35 -211 42 -289 14z
m-8 -112 c8 -49 -6 -70 -45 -70 -15 0 -46 -7 -69 -15 -25 -9 -41 -10 -41 -4 0
16 117 129 133 129 10 0 18 -14 22 -40z m249 12 c2 -4 -11 -6 -30 -4 -19 2
-34 6 -34 8 0 8 59 4 64 -4z m95 -31 c-2 -6 -10 2 -17 17 -11 25 -11 25 4 10
9 -9 15 -21 13 -27z m-272 -18 c-3 -10 -5 -4 -5 12 0 17 2 24 5 18 2 -7 2 -21
0 -30z m66 2 c-3 -9 -8 -14 -10 -11 -3 3 -2 9 2 15 9 16 15 13 8 -4z m164 -52
c-3 -10 -5 -4 -5 12 0 17 2 24 5 18 2 -7 2 -21 0 -30z m30 -10 c-3 -10 -5 -2
-5 17 0 19 2 27 5 18 2 -10 2 -26 0 -35z m-276 14 c-10 -9 -11 -8 -5 6 3 10 9
15 12 12 3 -3 0 -11 -7 -18z m379 -28 c0 -5 -4 -9 -8 -9 -15 0 -32 24 -32 45
1 19 1 19 20 -4 11 -13 20 -27 20 -32z m-313 9 c-3 -8 -6 -5 -6 6 -1 11 2 17
5 13 3 -3 4 -12 1 -19z m-102 -18 c-3 -5 -12 -10 -18 -10 -7 0 -6 4 3 10 19
12 23 12 15 0z m-47 -17 c-10 -2 -26 -2 -35 0 -10 3 -2 5 17 5 19 0 27 -2 18
-5z m365 -23 c9 -11 13 -20 7 -20 -5 0 -14 9 -20 20 -6 11 -9 20 -8 20 2 0 11
-9 21 -20z m-233 0 c0 -6 -31 -9 -77 -8 l-78 2 75 6 c41 4 76 7 78 8 1 1 2 -2
2 -8z m295 -18 c-3 -3 -11 0 -18 7 -9 10 -8 11 6 5 10 -3 15 -9 12 -12z m55
-11 c0 -5 -9 -7 -20 -4 -11 3 -20 7 -20 9 0 2 9 4 20 4 11 0 20 -4 20 -9z
m-150 -151 c13 -7 30 -44 50 -107 16 -54 30 -102 30 -108 0 -34 -129 -144
-137 -118 -2 6 -9 18 -16 27 -11 15 -15 15 -54 0 -40 -16 -46 -16 -85 0 -40
15 -44 15 -55 0 -7 -9 -14 -22 -16 -28 -6 -18 -84 40 -113 83 l-25 39 31 101
c18 59 38 105 48 110 23 14 318 14 342 1z m-300 -421 c0 -14 12 -25 37 -36 78
-32 223 -9 223 36 0 11 5 23 10 26 6 4 10 -13 10 -43 l0 -50 -47 -16 c-64 -22
-158 -20 -210 4 -42 18 -43 21 -43 65 0 28 4 44 10 40 6 -3 10 -15 10 -26z
m-220 -359 c-11 -21 -36 -26 -60 -10 -11 7 -16 34 -18 109 -4 98 -3 100 20
105 67 15 63 21 66 -86 1 -56 -2 -107 -8 -118z m753 205 c27 -5 27 -6 27 -88
0 -105 -6 -126 -38 -134 -41 -10 -52 17 -52 133 0 112 -6 104 63 89z m-108
-225 c3 -11 18 -28 31 -39 l26 -20 -84 -3 -83 -3 -3 -97 -3 -98 -33 0 c-31 0
-34 3 -40 38 -3 20 -6 65 -6 100 l0 62 -100 0 -100 0 0 -62 c0 -35 -3 -80 -6
-100 -6 -35 -9 -38 -40 -38 l-33 0 -3 98 -3 97 -78 3 -78 3 25 30 c15 17 26
35 26 40 0 5 119 9 289 9 280 0 290 -1 296 -20z m-683 -161 c-3 -90 -5 -99
-23 -99 -18 0 -19 8 -19 104 0 102 0 103 23 99 21 -4 22 -7 19 -104z m818 6
c0 -98 -1 -105 -20 -105 -18 0 -20 7 -20 84 0 46 -3 91 -6 99 -4 11 2 17 18
20 13 2 24 5 26 6 1 0 2 -46 2 -104z m-103 -32 c-2 -16 -4 -5 -4 22 0 28 2 40
4 28 2 -13 2 -35 0 -50z"/>
</g>
</svg>
