<?xml version="1.0" standalone="no"?>
<!DOCTYPE svg PUBLIC "-//W3C//DTD SVG 20010904//EN"
 "http://www.w3.org/TR/2001/REC-SVG-20010904/DTD/svg10.dtd">
<svg version="1.0" xmlns="http://www.w3.org/2000/svg"
 width="512.000000pt" height="512.000000pt" viewBox="0 0 512.000000 512.000000"
 preserveAspectRatio="xMidYMid meet">

<g transform="translate(0.000000,512.000000) scale(0.100000,-0.100000)"
fill="#000000" stroke="none">
<path d="M835 5105 c-198 -44 -351 -183 -411 -372 -24 -78 -29 -217 -10 -297
61 -258 275 -425 545 -426 151 0 278 54 386 164 82 84 118 146 145 252 102
399 -254 768 -655 679z"/>
<path d="M4050 5104 c-367 -78 -546 -479 -367 -818 67 -127 206 -227 369 -266
73 -18 73 -18 27 -19 -64 -1 -221 -43 -301 -79 -244 -110 -437 -325 -516 -572
-37 -117 -46 -182 -46 -352 -1 -182 2 -193 68 -242 27 -21 37 -21 868 -24 834
-2 841 -2 884 18 69 34 84 76 84 242 0 158 -18 273 -60 391 -58 160 -183 327
-323 433 -123 93 -309 167 -452 181 l-70 6 74 19 c259 64 431 279 431 541 0
157 -52 280 -165 392 -82 82 -145 118 -251 145 -89 23 -162 24 -254 4z"/>
<path d="M2273 4295 c-112 -17 -262 -54 -363 -90 -89 -32 -250 -105 -250 -114
0 -3 19 -19 43 -36 23 -16 77 -63 119 -103 l77 -74 80 31 c183 71 362 102 581
102 221 0 379 -27 568 -98 l93 -34 77 73 c42 40 96 87 119 103 24 17 43 33 43
36 0 12 -184 91 -301 130 -197 64 -310 81 -569 85 -156 2 -253 -1 -317 -11z"/>
<path d="M815 3993 c-237 -33 -476 -169 -612 -348 -136 -178 -190 -348 -200
-626 -6 -161 -5 -168 17 -208 16 -27 38 -48 65 -61 41 -20 57 -20 883 -18 831
3 841 3 868 24 56 41 68 67 72 164 6 120 -13 290 -44 397 -103 361 -372 604
-740 668 -80 14 -237 18 -309 8z"/>
<path d="M640 2388 c0 -78 20 -259 41 -366 84 -434 335 -843 693 -1129 23 -18
44 -33 48 -33 3 0 24 33 47 73 22 41 56 95 75 121 20 25 36 50 36 55 0 5 -12
16 -26 26 -44 28 -183 166 -244 240 -214 262 -332 559 -362 913 l-11 142 -149
0 -148 0 0 -42z"/>
<path d="M4176 2328 c-22 -340 -130 -641 -322 -898 -58 -78 -205 -231 -268
-280 -25 -19 -45 -38 -46 -42 0 -4 16 -29 36 -54 19 -26 53 -80 75 -121 23
-40 44 -73 47 -73 4 0 25 15 47 33 297 237 515 548 633 902 59 175 102 427
102 598 l0 37 -149 0 -148 0 -7 -102z"/>
<path d="M2447 2375 c-200 -40 -356 -181 -416 -379 -26 -83 -28 -224 -6 -310
53 -203 217 -355 430 -400 63 -13 66 -14 28 -15 -93 -2 -240 -44 -353 -101
-93 -47 -145 -84 -229 -164 -125 -121 -206 -254 -257 -423 -24 -79 -28 -108
-31 -283 -5 -192 -4 -196 19 -230 50 -74 -4 -70 928 -70 932 0 878 -4 928 70
24 35 24 38 19 230 -5 220 -17 278 -87 428 -51 109 -110 190 -201 278 -92 88
-146 124 -262 179 -99 46 -197 74 -292 83 l-60 5 65 13 c258 53 445 283 444
549 -1 159 -59 292 -178 403 -76 70 -163 116 -261 137 -84 18 -138 18 -228 0z"/>
</g>
</svg>
