<?xml version="1.0" standalone="no"?>
<!DOCTYPE svg PUBLIC "-//W3C//DTD SVG 20010904//EN"
 "http://www.w3.org/TR/2001/REC-SVG-20010904/DTD/svg10.dtd">
<svg version="1.0" xmlns="http://www.w3.org/2000/svg"
 width="512.000000pt" height="512.000000pt" viewBox="0 0 512.000000 512.000000"
 preserveAspectRatio="xMidYMid meet">

<g transform="translate(0.000000,512.000000) scale(0.100000,-0.100000)"
fill="#000000" stroke="none">
<path d="M667 4452 c-10 -10 -17 -28 -17 -40 0 -25 202 -399 333 -617 103
-172 171 -275 235 -357 l44 -57 -21 -56 c-12 -31 -21 -79 -21 -109 0 -61 13
-88 132 -291 l77 -130 -14 -170 c-7 -93 -14 -172 -14 -175 -1 -2 -27 21 -58
52 -32 31 -67 59 -79 62 -27 8 -74 -28 -74 -56 0 -13 38 -60 100 -123 l101
-102 -11 -164 c-16 -236 -9 -223 -85 -150 -49 47 -70 61 -94 61 -30 0 -61 -29
-61 -59 0 -8 48 -62 106 -121 l106 -108 -16 -206 c-25 -319 -43 -264 147 -447
181 -177 197 -185 240 -127 13 18 142 245 287 503 145 259 265 472 266 474 5
6 206 -171 212 -187 3 -8 0 -210 -7 -449 -7 -272 -8 -440 -2 -451 12 -22 352
-202 383 -202 16 0 55 33 136 117 228 237 269 320 288 576 6 90 14 112 29 87
11 -18 86 -51 103 -46 10 4 42 31 72 61 l54 55 67 -65 c37 -36 74 -65 82 -65
27 0 59 35 59 64 0 21 -15 44 -61 90 l-61 61 49 50 c66 67 69 81 28 142 l-34
50 131 12 c230 21 306 58 513 249 131 121 153 146 153 176 0 23 -164 343 -190
370 -17 18 -32 18 -416 7 -220 -6 -422 -11 -449 -11 l-50 0 -94 106 c-51 58
-92 106 -90 108 2 2 222 125 489 275 267 150 493 280 503 288 9 9 17 29 17 45
0 23 -28 57 -156 188 l-157 160 -56 0 c-31 0 -141 -7 -245 -15 l-190 -15 -106
105 c-62 60 -115 105 -126 105 -33 0 -64 -29 -64 -58 0 -21 17 -44 65 -92 35
-35 63 -66 61 -68 -2 -2 -86 -10 -187 -17 l-183 -14 -103 100 c-107 104 -134
117 -166 81 -31 -34 -21 -63 44 -128 l61 -61 -49 -6 c-26 -4 -104 -9 -173 -13
l-125 -6 -174 103 c-203 120 -232 127 -351 89 l-70 -22 -41 37 c-57 52 -235
167 -424 274 -205 117 -548 291 -573 291 -10 0 -26 -8 -35 -18z m369 -278
c193 -103 412 -231 458 -267 l28 -23 -27 -54 c-37 -72 -113 -151 -184 -189
-32 -17 -63 -31 -68 -31 -5 0 -45 60 -90 133 -111 181 -308 527 -299 527 1 0
83 -43 182 -96z m1592 -1417 l973 -1030 -28 -29 -27 -28 -206 205 c-129 128
-214 205 -226 205 -32 0 -64 -29 -64 -58 0 -22 40 -67 205 -232 l205 -206 -34
-33 -34 -33 -314 299 c-172 165 -637 609 -1033 987 -396 377 -721 690 -723
695 -2 5 23 23 55 41 78 44 162 127 207 204 32 55 41 63 55 54 9 -6 454 -474
989 -1041z m-595 981 c83 -50 87 -53 60 -59 -15 -4 -59 -7 -96 -8 l-69 -1 -43
48 c-50 53 -52 59 -27 65 54 14 88 6 175 -45z m1897 -163 c67 -67 101 -108 95
-114 -6 -6 -224 -130 -485 -277 -261 -146 -483 -274 -493 -282 -40 -35 -21
-70 127 -237 l140 -158 265 7 c146 3 347 9 446 12 l180 6 68 -130 67 -130
-101 -94 c-123 -114 -208 -174 -273 -193 -46 -14 -171 -28 -338 -38 l-66 -5
-757 801 c-513 542 -752 803 -743 807 7 4 99 13 203 20 105 6 474 34 820 60
347 26 655 48 685 49 l55 1 105 -105z m-2519 -331 l47 -46 -5 -66 c-8 -125 -8
-125 -64 -33 -48 81 -60 130 -43 175 9 23 13 21 65 -30z m1009 -964 c366 -348
686 -653 712 -679 l47 -46 -10 -150 c-19 -281 -33 -313 -230 -527 l-91 -98
-130 68 -130 67 6 145 c3 80 9 280 12 446 l7 301 -158 141 c-87 77 -166 143
-176 145 -44 12 -64 -18 -329 -489 -146 -259 -272 -481 -280 -493 -15 -23 -16
-23 -124 81 l-108 103 61 845 c34 465 64 869 67 899 l7 53 91 -89 c50 -50 390
-375 756 -723z"/>
</g>
</svg>
