<?xml version="1.0" encoding="UTF-8"?>
<!DOCTYPE svg PUBLIC "-//W3C//DTD SVG 1.1//EN" "http://www.w3.org/Graphics/SVG/1.1/DTD/svg11.dtd">
<svg xmlns="http://www.w3.org/2000/svg" version="1.1" width="512px" height="512px" style="shape-rendering:geometricPrecision; text-rendering:geometricPrecision; image-rendering:optimizeQuality; fill-rule:evenodd; clip-rule:evenodd" xmlns:xlink="http://www.w3.org/1999/xlink">
<g><path style="opacity:0.981" fill="#000000" d="M 235.5,27.5 C 238.32,27.2475 240.986,27.7475 243.5,29C 254.977,39.8999 266.644,50.5666 278.5,61C 282.214,62.8369 285.548,62.1703 288.5,59C 300.205,48.2927 312.205,37.9593 324.5,28C 327.466,27.1048 330.133,27.6048 332.5,29.5C 338.098,43.1267 343.598,56.7934 349,70.5C 350.37,75.5667 353.537,77.7334 358.5,77C 375.463,72.1764 392.463,67.843 409.5,64C 412.068,65.1271 413.402,67.1271 413.5,70C 411.476,86.1222 410.309,102.289 410,118.5C 411.558,120.768 413.724,121.934 416.5,122C 432.879,124.388 449.213,127.054 465.5,130C 469.311,133.273 469.478,136.773 466,140.5C 457.648,153.206 449.815,166.206 442.5,179.5C 442.848,181.697 443.848,183.53 445.5,185C 459.608,194.11 473.441,203.61 487,213.5C 487.944,216.347 487.444,218.847 485.5,221C 471.101,229.415 457.268,238.582 444,248.5C 443.333,250.5 443.333,252.5 444,254.5C 452.252,268.002 460.252,281.669 468,295.5C 469.041,298.636 468.207,301.136 465.5,303C 450.511,305.082 435.511,307.082 420.5,309C 415.092,308.859 411.758,311.359 410.5,316.5C 412.164,333.129 412.998,349.796 413,366.5C 411.559,367.87 409.892,368.87 408,369.5C 391.557,364.409 375.057,359.409 358.5,354.5C 356.303,354.848 354.47,355.848 353,357.5C 346.403,373.637 339.237,389.47 331.5,405C 328.697,405.755 326.03,405.422 323.5,404C 317.198,398.699 311.198,393.032 305.5,387C 322.333,370.167 339.167,353.333 356,336.5C 366.697,318.284 364.197,302.117 348.5,288C 342.907,284.983 337.24,282.483 331.5,280.5C 339.217,261.487 334.551,246.32 317.5,235C 313.401,232.91 309.067,231.744 304.5,231.5C 312.213,212.598 307.88,197.098 291.5,185C 286.764,182.565 281.764,180.899 276.5,180C 284.725,162.021 281.058,147.021 265.5,135C 251.744,127.22 238.41,127.887 225.5,137C 208.833,153.667 192.167,170.333 175.5,187C 171.817,186.445 168.15,185.445 164.5,184C 154.26,181.966 144.927,183.966 136.5,190C 123.167,203.333 109.833,216.667 96.5,230C 95.0922,230.315 93.7589,229.982 92.5,229C 88.0253,226.186 83.8586,223.019 80,219.5C 79.2419,217.231 79.4086,215.064 80.5,213C 93.8333,204.667 107.167,196.333 120.5,188C 122.562,186.468 123.896,184.468 124.5,182C 116.393,166.954 107.893,152.121 99,137.5C 98.3653,135.365 98.6986,133.365 100,131.5C 115.992,128.262 132.159,125.762 148.5,124C 153.943,123.437 156.61,120.437 156.5,115C 155.459,101.004 154.459,87.0038 153.5,73C 152.48,65.6833 155.48,63.0166 162.5,65C 176.879,69.1782 191.213,73.5115 205.5,78C 210.97,79.2206 214.47,77.0539 216,71.5C 222.257,56.6591 228.757,41.9925 235.5,27.5 Z"/></g>
<g><path style="opacity:0.957" fill="#000000" d="M 241.5,142.5 C 261.098,141.925 269.598,151.259 267,170.5C 266,172.5 265,174.5 264,176.5C 247.833,192.667 231.667,208.833 215.5,225C 214.5,225.667 213.5,225.667 212.5,225C 202.986,215.653 193.652,206.153 184.5,196.5C 200.986,179.514 217.653,162.681 234.5,146C 236.925,144.787 239.259,143.621 241.5,142.5 Z"/></g>
<g><path style="opacity:0.954" fill="#000000" d="M 267.5,193.5 C 286.462,191.301 295.629,199.635 295,218.5C 294.479,221.874 293.146,224.874 291,227.5C 278.626,240.209 265.959,252.542 253,264.5C 242.694,255.362 232.861,245.695 223.5,235.5C 237.278,220.384 251.945,206.384 267.5,193.5 Z"/></g>
<g><path style="opacity:0.98" fill="#000000" d="M 150.5,196.5 C 157.255,195.668 163.589,196.835 169.5,200C 195,225.5 220.5,251 246,276.5C 253.662,294.844 247.829,306.177 228.5,310.5C 223.798,310.06 219.464,308.56 215.5,306C 198.5,289 181.5,272 164.5,255C 159.023,252.405 155.689,254.072 154.5,260C 157.707,267.251 160.207,274.751 162,282.5C 164.034,293.329 162.034,303.329 156,312.5C 153.294,314.871 150.961,317.537 149,320.5C 148.751,327.599 151.917,330.099 158.5,328C 171.172,316.33 177.005,301.83 176,284.5C 187.562,296.731 199.729,308.231 212.5,319C 220.843,322.724 229.509,324.058 238.5,323C 244.767,330.468 252.767,334.801 262.5,336C 253.162,361.658 261.496,378.658 287.5,387C 274.167,400.333 260.833,413.667 247.5,427C 229.924,438.173 213.59,436.507 198.5,422C 196.103,420.276 193.769,420.276 191.5,422C 171.833,441.667 152.167,461.333 132.5,481C 127.833,484.333 123.167,484.333 118.5,481C 87.6667,450.167 56.8333,419.333 26,388.5C 23.1143,384.402 22.781,380.069 25,375.5C 46.3333,354.167 67.6667,332.833 89,311.5C 89.6667,309.5 89.6667,307.5 89,305.5C 79.5416,289.235 79.2083,272.902 88,256.5C 106.141,238.692 123.974,220.525 141.5,202C 144.263,199.626 147.263,197.792 150.5,196.5 Z"/></g>
<g><path style="opacity:0.957" fill="#000000" d="M 295.5,244.5 C 311.268,242.946 320.268,249.946 322.5,265.5C 321.98,268.912 321.147,272.245 320,275.5C 306.196,290.305 292.029,304.805 277.5,319C 267.374,324.491 258.041,323.491 249.5,316C 261.651,304.902 265.484,291.402 261,275.5C 270.167,266.333 279.333,257.167 288.5,248C 290.925,246.787 293.259,245.621 295.5,244.5 Z"/></g>
<g><path style="opacity:0.96" fill="#000000" d="M 325.5,294.5 C 343.321,295.485 351.154,304.819 349,322.5C 348,324.5 347,326.5 346,328.5C 332.167,342.333 318.333,356.167 304.5,370C 294.14,375.448 284.64,374.282 276,366.5C 270.452,357.709 270.119,348.709 275,339.5C 288.5,326 302,312.5 315.5,299C 318.815,297.17 322.149,295.67 325.5,294.5 Z"/></g>
</svg>
