<?xml version="1.0" standalone="no"?>
<!DOCTYPE svg PUBLIC "-//W3C//DTD SVG 20010904//EN"
 "http://www.w3.org/TR/2001/REC-SVG-20010904/DTD/svg10.dtd">
<svg version="1.0" xmlns="http://www.w3.org/2000/svg"
 width="512.000000pt" height="512.000000pt" viewBox="0 0 512.000000 512.000000"
 preserveAspectRatio="xMidYMid meet">

<g transform="translate(0.000000,512.000000) scale(0.100000,-0.100000)"
fill="#000000" stroke="none">
<path d="M2190 4848 c-24 -13 -52 -34 -62 -48 -17 -23 -138 -324 -138 -342 0
-4 18 -8 40 -8 52 0 148 -32 226 -76 33 -19 66 -34 72 -34 15 0 132 305 132
343 -1 75 -64 156 -138 177 -55 15 -83 12 -132 -12z"/>
<path d="M2714 4851 c-23 -10 -53 -34 -66 -52 -20 -28 -200 -460 -210 -507 -3
-14 323 -195 333 -184 14 16 202 520 206 553 10 75 -38 157 -112 190 -51 24
-99 23 -151 0z"/>
<path d="M3135 4565 c-71 -25 -94 -62 -184 -298 l-84 -219 18 -50 c21 -58 13
-100 -29 -157 l-25 -34 21 -29 c64 -90 190 -99 268 -20 30 31 53 83 143 319
114 302 122 335 88 401 -24 47 -50 70 -98 88 -48 17 -68 17 -118 -1z"/>
<path d="M1900 4313 c-51 -27 -68 -46 -257 -305 -209 -287 -235 -334 -254
-452 -15 -93 11 -225 60 -306 61 -101 482 -658 531 -704 101 -93 278 -165 406
-166 69 0 101 -62 49 -96 -30 -19 -115 -14 -223 13 -34 9 -64 14 -66 12 -1 -2
-21 -402 -45 -889 -23 -487 -45 -924 -48 -972 l-6 -88 -1007 0 c-963 0 -1008
-1 -1023 -18 -22 -24 -21 -55 1 -75 17 -16 208 -17 2544 -17 2433 0 2526 1
2541 18 22 24 21 55 -1 75 -17 16 -98 17 -965 17 -774 0 -947 2 -947 13 0 7
-23 442 -50 966 -28 524 -47 958 -43 964 4 7 35 49 69 93 152 200 201 318 305
736 44 176 78 322 76 324 -2 2 -21 -1 -43 -7 -52 -15 -135 -5 -191 22 -57 27
-118 89 -135 135 -14 39 -14 40 -59 17 -25 -13 -58 -18 -124 -18 -80 0 -95 3
-136 27 -25 15 -60 43 -77 63 l-32 35 -52 -29 c-80 -45 -167 -64 -268 -59 -70
4 -106 13 -208 51 -68 26 -127 47 -132 47 -5 0 -41 -39 -80 -87 l-70 -88 62
-21 c238 -80 421 -240 522 -455 45 -95 65 -173 73 -279 6 -95 -5 -120 -52
-120 -34 0 -55 36 -55 95 -1 179 -105 384 -259 511 -81 68 -220 136 -330 163
-147 36 -147 48 0 232 61 77 122 148 135 158 29 23 31 23 199 -45 115 -46 124
-48 220 -49 90 0 106 3 163 29 64 30 172 131 172 161 0 20 -30 38 -385 226
-305 161 -311 164 -380 167 -61 3 -77 0 -125 -25z"/>
<path d="M3500 4239 c-35 -14 -69 -48 -90 -89 -39 -78 -150 -391 -150 -424 0
-97 80 -176 177 -176 51 1 115 31 140 66 29 40 163 420 163 460 0 64 -41 128
-102 160 -31 16 -101 17 -138 3z"/>
<path d="M690 3332 c-31 -15 -40 -30 -77 -122 -23 -58 -42 -108 -43 -112 0 -5
8 -8 18 -8 9 0 55 -21 102 -45 46 -25 88 -41 92 -37 15 16 78 193 78 222 0 45
-24 85 -64 104 -43 20 -63 20 -106 -2z"/>
<path d="M1065 3335 c-17 -9 -36 -25 -43 -36 -12 -18 -142 -344 -142 -354 0
-5 211 -117 214 -113 1 1 35 90 75 197 71 189 72 194 59 234 -9 27 -25 49 -47
64 -39 27 -73 29 -116 8z"/>
<path d="M3925 3335 c-37 -19 -48 -36 -85 -133 -15 -42 -31 -85 -35 -94 -5
-14 -2 -18 14 -18 11 0 59 -21 107 -46 47 -25 87 -44 88 -42 2 2 19 46 39 98
44 115 47 166 12 204 -42 46 -89 56 -140 31z"/>
<path d="M4295 3335 c-17 -9 -36 -24 -43 -36 -11 -17 -142 -344 -142 -354 0
-5 212 -117 214 -113 2 2 36 91 76 198 71 192 72 196 59 235 -16 45 -67 85
-108 85 -14 0 -40 -7 -56 -15z"/>
<path d="M1365 3130 c-39 -16 -63 -57 -119 -205 -55 -144 -57 -151 -46 -197
11 -42 10 -53 -9 -91 -12 -25 -19 -51 -16 -59 9 -23 52 -42 92 -41 67 2 81 23
164 241 l77 201 -59 81 c-33 44 -61 80 -62 79 -1 0 -11 -4 -22 -9z"/>
<path d="M4595 3126 c-47 -21 -58 -40 -119 -202 -55 -145 -57 -151 -45 -195
11 -42 10 -50 -10 -93 -20 -40 -21 -49 -10 -63 38 -45 124 -47 163 -4 10 11
54 115 98 232 87 234 90 254 40 302 -34 33 -77 41 -117 23z"/>
<path d="M499 2975 c-25 -13 -330 -429 -365 -497 -21 -41 -29 -133 -15 -184
13 -48 216 -360 311 -477 117 -146 229 -220 362 -240 86 -12 98 -20 98 -58 0
-46 -31 -60 -115 -49 -39 5 -84 14 -99 20 -16 6 -30 9 -31 8 -1 -2 -12 -158
-24 -348 -12 -190 -25 -375 -28 -412 l-6 -68 401 0 c220 0 403 3 405 8 3 4 -8
176 -24 382 -15 206 -28 391 -29 410 0 27 12 52 54 108 64 86 125 202 155 292
11 36 38 151 59 256 l38 190 -60 0 c-80 -1 -145 30 -188 90 -22 31 -37 43 -47
38 -27 -11 -108 -17 -145 -10 -20 4 -56 23 -81 42 l-46 35 -64 -26 c-96 -38
-186 -35 -306 10 -51 20 -95 32 -99 28 -41 -48 -82 -104 -79 -107 2 -2 33 -18
69 -37 87 -45 207 -164 249 -246 56 -113 77 -245 43 -276 -46 -42 -80 -12 -97
84 -30 176 -148 314 -323 379 -65 24 -92 45 -92 71 0 26 179 248 206 255 14 4
62 -9 128 -35 113 -44 174 -51 250 -29 47 14 146 103 130 117 -22 21 -514 281
-540 286 -16 3 -41 -1 -55 -10z"/>
<path d="M3732 2978 c-32 -16 -351 -461 -374 -521 -22 -57 -23 -120 -3 -176
18 -53 237 -381 322 -483 113 -136 231 -209 361 -224 34 -3 66 -12 70 -18 22
-28 21 -48 -2 -71 -21 -21 -30 -23 -82 -18 -33 3 -78 12 -102 19 -33 9 -44 10
-47 1 -1 -7 -13 -165 -24 -352 -12 -187 -25 -368 -28 -402 l-6 -63 407 0 408
0 -7 63 c-8 82 -55 724 -55 751 0 12 24 53 53 91 111 148 163 281 217 550 17
88 34 168 37 179 4 16 1 17 -35 11 -80 -13 -182 34 -218 101 -15 28 -23 34
-39 28 -33 -11 -114 -16 -150 -10 -19 4 -55 23 -80 42 l-46 35 -67 -27 c-91
-36 -200 -31 -316 15 -44 18 -82 28 -86 24 -40 -48 -82 -104 -79 -107 2 -2 33
-18 69 -37 96 -49 210 -166 255 -260 42 -90 65 -205 47 -243 -24 -53 -102 -23
-102 40 0 41 -23 121 -49 172 -48 95 -164 190 -283 234 -55 19 -88 47 -88 73
0 20 180 240 204 249 18 7 45 0 117 -29 107 -42 194 -55 255 -35 50 17 108 58
128 92 l16 26 -52 30 c-205 115 -469 253 -494 257 -16 2 -39 -1 -52 -7z"/>
<path d="M4844 2881 c-26 -16 -39 -39 -73 -127 -90 -232 -92 -244 -43 -296 34
-37 80 -45 126 -23 44 21 50 32 111 207 54 157 55 190 4 232 -37 31 -82 34
-125 7z"/>
<path d="M1571 2833 c-41 -88 -101 -270 -101 -303 0 -79 80 -130 152 -96 41
20 52 36 89 142 l30 85 -72 99 c-40 55 -75 100 -79 100 -4 0 -12 -12 -19 -27z"/>
</g>
</svg>
