<?xml version="1.0" standalone="no"?>
<!DOCTYPE svg PUBLIC "-//W3C//DTD SVG 20010904//EN"
 "http://www.w3.org/TR/2001/REC-SVG-20010904/DTD/svg10.dtd">
<svg version="1.0" xmlns="http://www.w3.org/2000/svg"
 width="512.000000pt" height="512.000000pt" viewBox="0 0 512.000000 512.000000"
 preserveAspectRatio="xMidYMid meet">

<g transform="translate(0.000000,512.000000) scale(0.100000,-0.100000)"
fill="#000000" stroke="none">
<path d="M1464 5020 c-176 -26 -312 -173 -322 -349 -8 -132 48 -252 150 -327
91 -67 128 -74 413 -74 301 0 324 5 438 94 l37 30 28 -22 c117 -94 149 -102
418 -102 l222 0 1 -58 c2 -135 82 -262 206 -326 76 -39 172 -49 410 -44 186 4
217 8 268 27 208 81 304 313 210 512 -38 81 -100 144 -183 183 l-65 31 -236 3
-237 3 -4 72 c-5 93 -40 170 -108 237 -102 103 -196 124 -510 117 -233 -5
-272 -14 -368 -87 l-53 -41 -34 29 c-49 44 -135 82 -206 92 -75 11 -401 11
-475 0z m466 -191 c93 -20 150 -91 150 -186 0 -60 -24 -108 -73 -147 l-39 -31
-248 -3 c-230 -3 -252 -2 -287 16 -154 79 -132 303 34 348 61 16 392 18 463 3z
m951 0 c62 -13 122 -64 140 -116 19 -58 7 -137 -27 -180 -57 -70 -70 -73 -339
-73 -269 0 -282 3 -339 73 -34 42 -46 122 -27 179 16 50 71 99 128 114 61 16
392 18 464 3z m805 -438 c103 -47 138 -191 67 -279 -61 -75 -69 -77 -338 -77
-237 0 -241 0 -283 25 -131 75 -124 267 12 334 25 13 75 16 266 16 207 0 240
-3 276 -19z"/>
<path d="M889 4070 c-143 -24 -257 -124 -301 -262 -16 -52 -18 -96 -18 -344
l0 -284 -109 -107 c-212 -211 -339 -429 -411 -707 -49 -191 -60 -345 -39 -534
56 -517 365 -963 829 -1197 398 -200 890 -211 1291 -28 l77 35 -51 81 c-63
103 -116 215 -158 337 -18 52 -33 96 -35 98 -1 2 -21 -6 -45 -19 -181 -92
-429 -118 -629 -66 -286 74 -507 257 -631 521 -67 143 -82 217 -82 396 -1 179
16 257 83 399 126 263 342 441 630 518 93 25 105 26 530 32 431 6 435 6 480
29 63 33 115 86 142 146 22 50 23 59 23 341 0 309 -4 346 -52 431 -30 54 -106
124 -164 152 -26 13 -73 27 -105 32 -70 12 -1188 11 -1255 0z m682 -382 c84
-28 132 -95 132 -183 0 -58 -20 -102 -62 -138 -94 -79 -238 -51 -290 55 -51
106 -4 224 105 263 48 17 72 18 115 3z m10 -2867 c38 -39 40 -88 3 -125 -71
-70 -184 -3 -154 90 23 69 99 86 151 35z"/>
<path d="M2967 3690 c-110 -19 -219 -101 -270 -203 -38 -74 -47 -158 -47 -441
l0 -249 -104 -103 c-302 -299 -456 -665 -456 -1084 0 -586 321 -1097 855
-1363 199 -99 415 -148 656 -148 313 0 589 83 848 255 306 204 538 537 626
901 116 476 -11 988 -337 1359 l-35 40 -36 -57 c-97 -151 -240 -226 -430 -227
-66 -1 -70 -2 -52 -15 50 -37 160 -156 200 -216 60 -89 110 -198 136 -294 33
-119 33 -346 1 -465 -90 -332 -345 -592 -664 -680 -605 -166 -1198 285 -1199
910 0 377 207 699 554 860 168 78 262 89 723 90 401 0 426 3 505 64 25 18 58
58 74 87 l30 54 3 299 c3 277 2 304 -17 365 -40 129 -148 229 -278 256 -55 12
-179 14 -653 14 -322 -1 -607 -5 -633 -9z m708 -389 c104 -48 143 -156 94
-259 -72 -147 -297 -128 -344 30 -46 157 106 296 250 229z m-23 -2842 c28 -15
49 -70 39 -104 -20 -78 -137 -90 -170 -18 -17 38 -13 69 15 102 28 33 75 42
116 20z"/>
</g>
</svg>
