<?xml version="1.0" standalone="no"?>
<!DOCTYPE svg PUBLIC "-//W3C//DTD SVG 20010904//EN"
 "http://www.w3.org/TR/2001/REC-SVG-20010904/DTD/svg10.dtd">
<svg version="1.0" xmlns="http://www.w3.org/2000/svg"
 width="512.000000pt" height="512.000000pt" viewBox="0 0 512.000000 512.000000"
 preserveAspectRatio="xMidYMid meet">

<g transform="translate(0.000000,512.000000) scale(0.100000,-0.100000)"
fill="#000000" stroke="none">
<path d="M2175 3603 c-54 -9 -66 -15 -79 -41 -22 -43 -29 -108 -21 -198 l7
-84 479 0 479 0 0 135 c0 121 -2 137 -20 155 -11 11 -30 22 -42 24 -27 6 -773
13 -803 9z"/>
<path d="M1075 3097 c-32 -27 -46 -89 -38 -164 l6 -53 1518 0 1519 0 0 99 c0
96 -1 100 -26 120 l-27 21 -1463 0 -1463 0 -26 -23z"/>
<path d="M2370 2721 c-1621 -6 -1625 -6 -1670 -27 -55 -25 -108 -76 -128 -124
-17 -39 -30 -363 -18 -444 l7 -46 2000 0 1999 0 0 221 c0 146 -4 236 -12 263
-18 60 -77 112 -157 137 -84 28 8 27 -2021 20z"/>
<path d="M400 1840 l0 -80 2160 0 2160 0 0 80 0 80 -2160 0 -2160 0 0 -80z"/>
</g>
</svg>
