<?xml version="1.0" standalone="no"?>
<!DOCTYPE svg PUBLIC "-//W3C//DTD SVG 20010904//EN"
 "http://www.w3.org/TR/2001/REC-SVG-20010904/DTD/svg10.dtd">
<svg version="1.0" xmlns="http://www.w3.org/2000/svg"
 width="512.000000pt" height="512.000000pt" viewBox="0 0 512.000000 512.000000"
 preserveAspectRatio="xMidYMid meet">

<g transform="translate(0.000000,512.000000) scale(0.100000,-0.100000)"
fill="#000000" stroke="none">
<path d="M2393 4907 l-633 -212 -212 -212 -213 -213 108 -107 107 -108 217
217 218 216 313 103 312 104 265 -265 265 -265 212 213 213 212 -265 265
c-146 146 -267 265 -270 264 -3 0 -290 -96 -637 -212z"/>
<path d="M4308 4483 l-108 -108 -103 103 c-56 56 -107 102 -112 102 -13 0
-625 -612 -625 -625 0 -5 131 -141 290 -300 l290 -291 -11 -78 c-16 -120 7
-252 64 -361 46 -88 165 -203 258 -249 238 -117 502 -74 690 113 232 232 238
592 14 829 -106 113 -233 174 -390 188 l-77 7 68 68 69 69 -103 103 c-56 56
-102 107 -102 112 0 5 46 56 102 112 l103 103 -105 105 -105 105 -107 -107z
m316 -994 c67 -25 139 -92 169 -157 30 -65 30 -179 0 -243 -27 -60 -86 -119
-149 -150 -38 -18 -65 -23 -124 -23 -89 0 -151 25 -213 87 -58 58 -82 117 -82
207 0 93 25 151 90 214 83 81 200 106 309 65z"/>
<path d="M3004 3609 l-131 -131 -69 30 c-502 220 -1128 148 -1563 -180 l-53
-41 1048 -1048 c833 -833 1051 -1046 1062 -1037 27 23 154 223 197 311 57 117
119 305 141 427 25 132 25 412 1 533 -21 102 -69 252 -102 317 l-24 45 71 71
70 72 -10 63 c-6 35 -14 100 -18 144 l-6 80 -237 238 c-129 130 -238 237 -241
237 -3 0 -64 -59 -136 -131z"/>
<path d="M542 3087 l-212 -212 1273 -1273 1272 -1272 213 213 212 212 -1273
1273 -1272 1272 -213 -213z"/>
<path d="M313 2403 c-144 -182 -245 -414 -294 -678 -22 -116 -17 -399 10 -525
127 -602 569 -1044 1171 -1171 126 -27 409 -32 525 -10 163 30 306 77 436 142
77 38 247 148 267 172 9 10 -211 235 -1037 1061 l-1048 1048 -30 -39z"/>
</g>
</svg>
