<?xml version="1.0" standalone="no"?>
<!DOCTYPE svg PUBLIC "-//W3C//DTD SVG 20010904//EN"
 "http://www.w3.org/TR/2001/REC-SVG-20010904/DTD/svg10.dtd">
<svg version="1.0" xmlns="http://www.w3.org/2000/svg"
 width="512.000000pt" height="512.000000pt" viewBox="0 0 512.000000 512.000000"
 preserveAspectRatio="xMidYMid meet">

<g transform="translate(0.000000,512.000000) scale(0.100000,-0.100000)"
fill="#000000" stroke="none">
<path d="M1647 4654 c-385 -70 -712 -374 -813 -759 -23 -86 -27 -121 -28 -255
0 -116 4 -176 18 -240 101 -465 434 -851 821 -951 110 -28 280 -28 390 0 335
86 635 390 773 781 53 150 67 238 66 410 -1 134 -5 169 -28 255 -139 526 -661
856 -1199 759z m931 -859 c40 -33 56 -76 49 -131 -6 -57 -27 -81 -138 -154
-276 -182 -645 -237 -969 -143 -166 48 -399 179 -442 248 -37 61 -16 148 45
185 31 19 55 20 729 20 l696 0 30 -25z"/>
<path d="M1340 3655 c0 -9 11 -32 24 -53 77 -121 164 -128 269 -21 87 89 87
89 -118 89 -150 0 -175 -2 -175 -15z"/>
<path d="M1990 3652 c0 -20 44 -85 76 -114 71 -62 167 -33 245 75 16 22 26 43
23 48 -3 5 -81 9 -175 9 -158 0 -169 -1 -169 -18z"/>
<path d="M4313 4251 c-38 -24 -49 -38 -348 -466 -131 -187 -241 -344 -245
-349 -5 -4 -29 4 -55 19 -39 24 -48 26 -59 14 -7 -8 -54 -80 -105 -160 l-92
-147 -39 22 c-29 16 -44 18 -56 11 -15 -10 -404 -671 -404 -687 0 -3 33 -16
73 -28 184 -55 267 -84 326 -117 78 -44 206 -163 246 -232 17 -28 33 -51 36
-51 3 0 27 38 53 85 54 97 55 97 156 64 128 -42 230 -101 327 -191 53 -49 77
-57 105 -35 25 19 118 179 118 204 0 26 -73 94 -172 159 -73 49 -191 103 -284
130 l-55 16 27 46 c15 26 32 52 38 58 6 6 110 23 231 38 286 35 284 35 301 61
12 18 12 42 4 146 -14 167 -9 164 -165 144 -66 -8 -132 -15 -148 -15 l-27 0
24 49 c18 35 122 143 391 408 216 213 374 376 385 399 11 21 20 52 20 69 -1
39 -31 104 -61 131 -13 12 -110 67 -215 123 -174 92 -195 101 -245 101 -36 0
-65 -7 -86 -19z m194 -246 c42 -12 73 -62 73 -115 0 -41 -5 -55 -31 -84 -50
-57 -121 -61 -180 -8 -55 49 -50 149 10 191 39 28 72 32 128 16z"/>
<path d="M1025 2376 l-110 -32 -3 -172 -2 -172 -180 0 -179 0 -3 115 -3 116
-55 -28 c-78 -39 -188 -152 -227 -234 -62 -126 -63 -134 -63 -781 0 -391 4
-596 11 -615 13 -34 55 -80 91 -99 40 -21 3042 -21 3091 0 42 17 83 66 97 114
6 23 10 237 10 582 -1 613 -4 648 -66 777 -45 95 -148 202 -239 250 -33 18
-193 72 -354 121 l-294 89 -81 -55 c-158 -108 -328 -171 -521 -193 -242 -29
-510 42 -730 193 l-81 55 -109 -31z m-115 -621 l0 -105 -180 0 -180 0 0 105 0
105 180 0 180 0 0 -105z m0 -350 l0 -105 -180 0 -180 0 0 105 0 105 180 0 180
0 0 -105z m0 -355 l0 -110 -177 2 -178 3 -3 108 -3 107 181 0 180 0 0 -110z
m0 -355 l0 -115 -177 2 -178 3 -3 113 -3 112 181 0 180 0 0 -115z"/>
</g>
</svg>
