<?xml version="1.0" encoding="UTF-8"?>
<!DOCTYPE svg PUBLIC "-//W3C//DTD SVG 1.1//EN" "http://www.w3.org/Graphics/SVG/1.1/DTD/svg11.dtd">
<svg xmlns="http://www.w3.org/2000/svg" version="1.1" width="512px" height="512px" style="shape-rendering:geometricPrecision; text-rendering:geometricPrecision; image-rendering:optimizeQuality; fill-rule:evenodd; clip-rule:evenodd" xmlns:xlink="http://www.w3.org/1999/xlink">
<g><path style="opacity:0.996" fill="#000000" d="M 13.5,11.5 C 41.502,11.3334 69.502,11.5 97.5,12C 98,12.5 98.5,13 99,13.5C 99.6667,172.167 99.6667,330.833 99,489.5C 98.5,490 98,490.5 97.5,491C 69.5,491.667 41.5,491.667 13.5,491C 13,490.5 12.5,490 12,489.5C 11.5001,472.837 11.3334,456.17 11.5,439.5C 19.5069,439.666 27.5069,439.5 35.5,439C 42.3469,437.134 44.1803,432.968 41,426.5C 40.2496,425.874 39.4162,425.374 38.5,425C 29.5679,423.619 20.5679,423.119 11.5,423.5C 11.5,408.833 11.5,394.167 11.5,379.5C 23.8949,379.918 36.2282,379.418 48.5,378C 53.8333,373.667 53.8333,369.333 48.5,365C 36.2282,363.582 23.8949,363.082 11.5,363.5C 11.5,348.833 11.5,334.167 11.5,319.5C 19.5069,319.666 27.5069,319.5 35.5,319C 42.3469,317.134 44.1803,312.968 41,306.5C 40.2496,305.874 39.4162,305.374 38.5,305C 29.5679,303.619 20.5679,303.119 11.5,303.5C 11.5,288.833 11.5,274.167 11.5,259.5C 23.8949,259.918 36.2282,259.418 48.5,258C 53.8333,253.667 53.8333,249.333 48.5,245C 36.2282,243.582 23.8949,243.082 11.5,243.5C 11.5,228.833 11.5,214.167 11.5,199.5C 19.5069,199.666 27.5069,199.5 35.5,199C 42.3469,197.134 44.1803,192.968 41,186.5C 40.2496,185.874 39.4162,185.374 38.5,185C 29.5679,183.619 20.5679,183.119 11.5,183.5C 11.5,168.833 11.5,154.167 11.5,139.5C 23.8949,139.918 36.2282,139.418 48.5,138C 53.8333,133.667 53.8333,129.333 48.5,125C 36.2282,123.582 23.8949,123.082 11.5,123.5C 11.5,108.833 11.5,94.1667 11.5,79.5C 19.5069,79.6664 27.5069,79.4997 35.5,79C 42.3469,77.1344 44.1803,72.9677 41,66.5C 40.2496,65.8742 39.4162,65.3742 38.5,65C 29.5679,63.6187 20.5679,63.1187 11.5,63.5C 11.3334,46.83 11.5001,30.1633 12,13.5C 12.7172,12.9558 13.2172,12.2891 13.5,11.5 Z"/></g>
<g><path style="opacity:0.961" fill="#000000" d="M 302.5,30.5 C 336.71,29.1828 361.877,43.5161 378,73.5C 386.169,92.3739 386.503,111.374 379,130.5C 374.524,140.12 369.524,149.453 364,158.5C 349.136,179.037 333.136,198.703 316,217.5C 312.333,222.833 308.667,222.833 305,217.5C 287.864,198.703 271.864,179.037 257,158.5C 248.249,145.995 241.916,132.329 238,117.5C 233.183,82.9702 245.683,56.8035 275.5,39C 284.184,34.753 293.184,31.9197 302.5,30.5 Z M 304.5,57.5 C 328.749,56.6964 345.582,67.3631 355,89.5C 361.194,112.928 354.36,131.428 334.5,145C 308.359,157.243 286.859,151.743 270,128.5C 257.443,100.203 264.277,78.0366 290.5,62C 295.184,60.1702 299.851,58.6702 304.5,57.5 Z"/></g>
<g><path style="opacity:0.947" fill="#000000" d="M 135.5,146.5 C 165.507,146.167 195.507,146.5 225.5,147.5C 196.167,177.5 166.5,207.167 136.5,236.5C 135.5,206.507 135.167,176.507 135.5,146.5 Z"/></g>
<g><path style="opacity:0.966" fill="#000000" d="M 387.5,146.5 C 398.5,146.5 409.5,146.5 420.5,146.5C 420.667,187.168 420.5,227.835 420,268.5C 386.32,302.347 352.486,336.014 318.5,369.5C 274.297,315.801 230.297,261.967 186.5,208C 202.973,190.36 219.973,173.194 237.5,156.5C 246.75,169.758 256.417,182.758 266.5,195.5C 258.439,197.686 250.439,200.186 242.5,203C 234.705,206.139 228.871,211.305 225,218.5C 223.865,226.401 226.698,232.568 233.5,237C 241.253,241.697 249.586,245.031 258.5,247C 294.577,254.581 330.577,254.248 366.5,246C 377.403,243.801 386.57,238.635 394,230.5C 398.539,221.113 396.373,213.613 387.5,208C 377.07,202.356 366.07,198.19 354.5,195.5C 367.254,180.318 378.254,163.984 387.5,146.5 Z"/></g>
<g><path style="opacity:0.939" fill="#000000" d="M 470.5,147.5 C 474.516,146.9 478.016,147.9 481,150.5C 486.284,158.119 491.951,165.452 498,172.5C 501.997,183.036 498.497,187.536 487.5,186C 485.448,185.07 483.948,183.57 483,181.5C 482.333,256.167 482.333,330.833 483,405.5C 488.031,399.324 493.364,398.991 499,404.5C 499.667,407.5 499.667,410.5 499,413.5C 492.527,422.274 485.693,430.774 478.5,439C 472.843,440.718 468.343,439.218 465,434.5C 460.333,428.5 455.667,422.5 451,416.5C 445.178,408.484 447.011,403.151 456.5,400.5C 460.571,400.736 463.404,402.736 465,406.5C 465.667,331.5 465.667,256.5 465,181.5C 460.321,187.335 454.988,188.001 449,183.5C 447,180.167 447,176.833 449,173.5C 455.684,164.327 462.85,155.661 470.5,147.5 Z"/></g>
<g><path style="opacity:0.911" fill="#000000" d="M 274.5,209.5 C 276.199,209.34 277.866,209.506 279.5,210C 285.356,216.222 290.856,222.722 296,229.5C 299.06,232.614 302.56,235.114 306.5,237C 289.258,237.22 272.258,235.22 255.5,231C 250.261,229.587 245.261,227.587 240.5,225C 238.777,221.592 239.777,219.259 243.5,218C 253.748,214.358 264.081,211.524 274.5,209.5 Z"/></g>
<g><path style="opacity:0.912" fill="#000000" d="M 341.5,209.5 C 355.443,210.609 368.61,214.276 381,220.5C 381.667,221.833 381.667,223.167 381,224.5C 371.774,229.464 361.94,232.631 351.5,234C 339.24,236.123 326.906,237.123 314.5,237C 318.44,235.114 321.94,232.614 325,229.5C 330.334,222.669 335.834,216.002 341.5,209.5 Z"/></g>
<g><path style="opacity:0.989" fill="#000000" d="M 173.5,219.5 C 175.903,219.393 177.736,220.393 179,222.5C 235.644,291.979 292.478,361.312 349.5,430.5C 278.17,431.5 206.836,431.833 135.5,431.5C 135.333,373.499 135.5,315.499 136,257.5C 148.702,244.965 161.202,232.298 173.5,219.5 Z"/></g>
<g><path style="opacity:0.963" fill="#000000" d="M 418.5,289.5 C 420.495,336.488 421.162,383.822 420.5,431.5C 403.154,431.833 385.821,431.5 368.5,430.5C 354.963,414.134 341.63,397.634 328.5,381C 358.328,350.339 388.328,319.839 418.5,289.5 Z"/></g>
<g><path style="opacity:0.939" fill="#000000" d="M 156.5,447.5 C 164.992,447.79 168.158,452.124 166,460.5C 164.5,462 163,463.5 161.5,465C 243.167,465.667 324.833,465.667 406.5,465C 400.632,461.96 399.132,457.46 402,451.5C 406.571,446.499 411.404,446.333 416.5,451C 424.092,457.047 431.592,463.214 439,469.5C 440.494,474.526 439.327,478.692 435.5,482C 427.881,487.284 420.548,492.951 413.5,499C 404.39,501.216 400.223,497.716 401,488.5C 402.122,486.376 403.622,484.543 405.5,483C 324.167,482.333 242.833,482.333 161.5,483C 166.882,487.002 167.882,492.002 164.5,498C 160.5,500 156.5,500 152.5,498C 145.452,491.951 138.119,486.284 130.5,481C 126.301,475.719 126.634,470.719 131.5,466C 139.756,459.556 148.089,453.389 156.5,447.5 Z"/></g>
</svg>
