<?xml version="1.0" encoding="UTF-8"?>
<!DOCTYPE svg PUBLIC "-//W3C//DTD SVG 1.1//EN" "http://www.w3.org/Graphics/SVG/1.1/DTD/svg11.dtd">
<svg xmlns="http://www.w3.org/2000/svg" version="1.1" width="512px" height="512px" style="shape-rendering:geometricPrecision; text-rendering:geometricPrecision; image-rendering:optimizeQuality; fill-rule:evenodd; clip-rule:evenodd" xmlns:xlink="http://www.w3.org/1999/xlink">
<g><path style="opacity:0.987" fill="#000000" d="M 247.5,31.5 C 275.978,29.8109 289.145,43.1442 287,71.5C 284.688,80.1503 279.688,86.8169 272,91.5C 271.5,162.833 271.333,234.166 271.5,305.5C 277.12,306.727 281.953,309.394 286,313.5C 289.332,321.341 287.165,327.175 279.5,331C 263.5,337 247.5,337 231.5,331C 222.141,325.122 221.141,318.122 228.5,310C 231.971,307.928 235.638,306.428 239.5,305.5C 239.667,234.166 239.5,162.833 239,91.5C 222.598,79.3557 218.931,64.0224 228,45.5C 233.005,38.649 239.505,33.9823 247.5,31.5 Z"/></g>
<g><path style="opacity:0.994" fill="#000000" d="M 287.5,95.5 C 328.835,95.3333 370.168,95.5 411.5,96C 414.516,97.5286 415.849,100.029 415.5,103.5C 415.485,105.634 414.985,107.634 414,109.5C 404.644,120.689 395.477,132.022 386.5,143.5C 395.477,154.978 404.644,166.311 414,177.5C 416.109,181.781 415.942,185.948 413.5,190C 371.585,191.489 329.585,191.989 287.5,191.5C 287.5,159.5 287.5,127.5 287.5,95.5 Z"/></g>
<g><path style="opacity:0.987" fill="#000000" d="M 297.5,223.5 C 301.514,223.334 305.514,223.501 309.5,224C 319.5,229 329.5,234 339.5,239C 356.167,239.333 372.833,239.667 389.5,240C 412.167,251.333 434.833,262.667 457.5,274C 458.667,275.167 459.833,276.333 461,277.5C 467,289.5 473,301.5 479,313.5C 481.001,321.181 479.167,327.681 473.5,333C 463.833,337.833 454.167,342.667 444.5,347.5C 441.373,352.92 438.373,358.42 435.5,364C 445.401,373.231 454.567,383.064 463,393.5C 464.091,399.097 463.424,404.43 461,409.5C 448.438,422.731 435.272,435.231 421.5,447C 417.5,447.667 413.5,447.667 409.5,447C 391.645,442.578 373.812,438.078 356,433.5C 336.229,447.6 316.729,462.1 297.5,477C 294.456,478.923 291.123,479.756 287.5,479.5C 262.511,474.586 237.844,468.419 213.5,461C 207.833,455.681 205.999,449.181 208,441.5C 219.781,424.719 231.947,408.219 244.5,392C 235.5,389 226.5,386 217.5,383C 213.742,381.077 210.409,378.577 207.5,375.5C 200.014,382.485 192.681,389.652 185.5,397C 180.43,399.424 175.097,400.091 169.5,399C 154.5,394 139.5,389 124.5,384C 107.5,383.667 90.5,383.333 73.5,383C 61.5,377 49.5,371 37.5,365C 31.8327,359.681 29.9993,353.181 32,345.5C 38,333.5 44,321.5 50,309.5C 51.9384,306.894 54.4384,305.061 57.5,304C 75.265,297.577 93.265,292.077 111.5,287.5C 115.123,287.244 118.456,288.077 121.5,290C 125.833,294.333 130.167,298.667 134.5,303C 137.482,303.498 140.482,303.665 143.5,303.5C 143.666,299.486 143.499,295.486 143,291.5C 138,281.5 133,271.5 128,261.5C 125.833,245 133,237.833 149.5,240C 167.092,244.273 184.592,248.773 202,253.5C 205.833,249.667 209.667,245.833 213.5,242C 216.536,239.994 219.869,239.16 223.5,239.5C 223.667,257.17 223.5,274.836 223,292.5C 212.447,295.274 203.447,300.608 196,308.5C 191.333,315.833 191.333,323.167 196,330.5C 205.01,339.59 215.843,345.423 228.5,348C 237.462,349.639 246.462,350.805 255.5,351.5C 272.376,351.292 288.376,347.458 303.5,340C 310.055,336.445 314.888,331.279 318,324.5C 319.225,318.732 318.225,313.399 315,308.5C 307.553,300.608 298.553,295.274 288,292.5C 287.333,270.833 287.333,249.167 288,227.5C 291.291,226.243 294.458,224.91 297.5,223.5 Z"/></g>
</svg>
