<?xml version="1.0" standalone="no"?>
<!DOCTYPE svg PUBLIC "-//W3C//DTD SVG 20010904//EN"
 "http://www.w3.org/TR/2001/REC-SVG-20010904/DTD/svg10.dtd">
<svg version="1.0" xmlns="http://www.w3.org/2000/svg"
 width="336.000000pt" height="132.000000pt" viewBox="0 0 336.000000 132.000000"
 preserveAspectRatio="xMidYMid meet">

<g transform="translate(0.000000,132.000000) scale(0.100000,-0.100000)"
fill="red" stroke="none">
<path d="M685 1131 c-115 -29 -161 -96 -175 -258 -8 -93 -8 -109 7 -125 9 -10
22 -18 30 -18 22 0 72 -63 73 -92 0 -34 -3 -36 -97 -54 -143 -27 -170 -57
-194 -217 -9 -61 -15 -115 -12 -119 6 -10 820 -10 826 0 10 15 -29 230 -46
256 -21 31 -69 63 -107 70 -14 3 -51 10 -82 16 l-58 11 0 37 c1 39 37 92 63
92 8 0 21 8 30 18 15 16 15 32 7 125 -10 112 -28 164 -72 203 -51 47 -133 70
-193 55z m110 -51 c-3 -5 -14 -10 -23 -10 -15 0 -15 2 -2 10 20 13 33 13 25 0z
m-140 -21 c9 -27 -1 -35 -49 -42 l-39 -6 33 34 c39 41 46 42 55 14z m42 -26
c-3 -10 -5 -2 -5 17 0 19 2 27 5 18 2 -10 2 -26 0 -35z m120 32 c0 -8 -4 -12
-9 -9 -5 3 -6 10 -3 15 9 13 12 11 12 -6z m-67 1 c0 -2 -8 -10 -17 -17 -16
-13 -17 -12 -4 4 13 16 21 21 21 13z m90 -50 c0 -29 24 -56 51 -56 11 0 19 -7
19 -17 0 -12 -3 -14 -8 -6 -4 6 -19 14 -34 18 -18 5 -30 17 -37 37 -14 38 -14
48 -1 48 6 0 10 -11 10 -24z m-130 -42 c0 -2 -19 -4 -42 -4 -26 0 -38 4 -30 8
12 8 72 4 72 -4z m-90 -4 c0 -5 -7 -10 -16 -10 -8 0 -12 5 -9 10 3 6 10 10 16
10 5 0 9 -4 9 -10z m200 -100 c10 -6 26 -34 35 -65 18 -62 12 -84 -31 -112
-24 -15 -27 -16 -35 0 -8 13 -14 14 -34 5 -19 -8 -31 -8 -50 0 -20 9 -26 8
-34 -6 -9 -15 -14 -13 -45 18 l-36 35 15 55 c8 30 22 61 32 67 20 16 156 17
183 3z m-14 -278 c-12 -11 -114 -14 -135 -3 -11 7 -21 21 -21 33 0 20 1 20 13
5 27 -37 135 -29 138 10 1 10 4 5 6 -10 3 -16 2 -31 -1 -35z m-266 -96 c0 -57
-17 -85 -38 -64 -16 16 -16 105 1 111 32 13 37 7 37 -47z m414 48 c19 -7 22
-94 4 -112 -21 -21 -38 7 -38 64 0 54 4 59 34 48z m-51 -134 c16 -20 16 -20
-28 -20 l-45 0 0 -55 c0 -48 -3 -55 -19 -55 -17 0 -20 8 -23 53 l-3 52 -55 0
-55 0 -3 -52 c-3 -45 -6 -53 -23 -53 -16 0 -19 7 -19 55 l0 55 -45 0 c-44 0
-44 0 -28 20 16 18 30 20 173 20 143 0 157 -2 173 -20z m-393 -75 c0 -30 -4
-55 -10 -55 -5 0 -10 25 -10 55 0 30 5 55 10 55 6 0 10 -25 10 -55z m460 0 c0
-30 -4 -55 -10 -55 -5 0 -10 25 -10 55 0 30 5 55 10 55 6 0 10 -25 10 -55z
m-253 -17 c-3 -7 -5 -2 -5 12 0 14 2 19 5 13 2 -7 2 -19 0 -25z m30 0 c-3 -7
-5 -2 -5 12 0 14 2 19 5 13 2 -7 2 -19 0 -25z m160 0 c-3 -7 -5 -2 -5 12 0 14
2 19 5 13 2 -7 2 -19 0 -25z"/>
<path d="M1685 1131 c-115 -29 -161 -96 -175 -258 -8 -93 -8 -109 7 -125 9
-10 22 -18 30 -18 22 0 72 -63 73 -92 0 -34 -3 -36 -97 -54 -143 -27 -170 -57
-194 -217 -9 -61 -15 -115 -12 -119 6 -10 820 -10 826 0 10 15 -29 230 -46
256 -21 31 -69 63 -107 70 -14 3 -51 10 -82 16 l-58 11 0 37 c1 39 37 92 63
92 8 0 21 8 30 18 15 16 15 32 7 125 -10 112 -28 164 -72 203 -51 47 -133 70
-193 55z m136 -48 c24 -14 29 -24 29 -54 0 -36 17 -60 53 -72 9 -4 17 -16 17
-27 0 -18 -4 -17 -47 13 -35 24 -49 42 -54 66 -9 41 -21 54 -49 49 -24 -3 -32
-14 -47 -63 -8 -28 -12 -30 -65 -35 -37 -3 -67 -13 -87 -28 -30 -22 -31 -22
-31 -2 0 23 53 60 88 60 36 0 65 36 57 72 -5 21 -3 33 6 40 19 13 95 2 130
-19z m-164 -47 c-4 -9 -16 -16 -27 -16 -12 0 -30 -5 -41 -10 -33 -18 -23 9 18
48 36 33 37 34 46 14 5 -12 7 -28 4 -36z m133 -25 c0 -11 3 -26 6 -35 5 -12 0
-16 -21 -16 -23 0 -26 3 -21 23 3 12 6 28 6 35 0 6 7 12 15 12 8 0 15 -9 15
-19z m110 -13 c0 -6 -7 -5 -15 2 -8 7 -15 17 -15 22 0 6 7 5 15 -2 8 -7 15
-17 15 -22z m-20 -96 c42 -43 64 -142 31 -142 -6 0 -18 25 -27 55 -27 83 -38
90 -154 90 -116 0 -127 -7 -154 -90 -9 -30 -21 -55 -27 -55 -33 0 -11 99 31
142 28 28 30 28 150 28 120 0 122 0 150 -28z m-60 -32 c27 -15 55 -112 40
-140 -15 -27 -60 -56 -68 -43 -9 12 -115 13 -123 0 -9 -13 -46 8 -65 38 -14
22 -14 29 0 79 9 30 24 60 34 65 22 14 158 14 182 1z m-53 -214 c9 -9 -16 -26
-37 -26 -21 0 -44 16 -37 26 6 11 64 10 74 0z m-107 -20 c0 -8 16 -20 35 -26
41 -14 105 2 105 26 0 8 5 14 10 14 18 0 11 -49 -9 -60 -11 -5 -43 -10 -71
-10 -28 0 -60 5 -71 10 -20 11 -27 60 -9 60 6 0 10 -6 10 -14z m70 -77 c36 0
85 1 110 3 l45 3 3 -52 3 -53 -160 0 -161 0 0 48 c0 27 3 52 7 56 5 4 26 5 48
1 22 -4 69 -7 105 -6z m-192 -66 c-3 -60 -5 -68 -23 -68 -18 0 -20 8 -23 62
-3 62 -1 66 41 72 4 0 7 -29 5 -66z m423 57 c6 0 9 -27 7 -62 -3 -55 -5 -63
-23 -63 -18 0 -20 8 -23 69 -3 60 -1 68 13 62 9 -3 21 -6 26 -6z m-503 -142
l-3 -133 -54 -3 -54 -3 7 68 c4 37 12 86 17 107 11 39 57 96 79 96 7 0 10 -41
8 -132z m592 104 c32 -32 46 -76 56 -175 l7 -68 -54 3 -54 3 -3 133 c-2 91 1
132 8 132 7 0 24 -13 40 -28z m-146 -101 c18 -19 17 -20 -26 -23 l-43 -3 -3
-57 c-3 -49 -6 -58 -22 -58 -16 0 -19 9 -22 58 l-3 57 -55 0 -55 0 -3 -57 c-3
-49 -6 -58 -22 -58 -16 0 -19 9 -22 58 l-3 57 -43 3 c-43 3 -44 4 -26 23 15
17 31 19 174 19 143 0 159 -2 174 -19z m-392 -81 c-5 -78 -22 -78 -22 0 0 41
4 60 13 60 8 0 11 -17 9 -60z m458 0 c0 -78 -17 -78 -22 0 -2 43 1 60 10 60 8
0 12 -19 12 -60z m-370 -16 c0 -44 -1 -45 -27 -42 -25 3 -28 7 -31 46 -3 41
-2 42 27 42 30 0 31 -1 31 -46z m160 1 c0 -43 -1 -45 -30 -45 -29 0 -30 2 -30
45 0 43 1 45 30 45 29 0 30 -2 30 -45z m158 3 c-3 -39 -6 -43 -30 -46 -27 -3
-28 -2 -28 42 0 45 1 46 31 46 29 0 30 -1 27 -42z"/>
<path d="M2605 1131 c-115 -29 -161 -96 -175 -258 -8 -93 -8 -109 7 -125 9
-10 22 -18 30 -18 22 0 72 -63 73 -92 0 -34 -3 -36 -97 -54 -143 -27 -170 -57
-194 -217 -9 -61 -15 -115 -12 -119 6 -10 820 -10 826 0 10 15 -29 230 -46
256 -21 31 -69 63 -107 70 -14 3 -51 10 -82 16 l-58 11 0 37 c1 39 37 92 63
92 8 0 21 8 30 18 15 16 15 32 7 125 -10 112 -28 164 -72 203 -51 47 -133 70
-193 55z m136 -48 c24 -14 29 -24 29 -54 0 -36 17 -60 53 -72 9 -4 17 -16 17
-27 0 -18 -4 -17 -47 13 -35 24 -49 42 -54 66 -9 41 -21 54 -49 49 -24 -3 -32
-14 -47 -63 -8 -28 -12 -30 -65 -35 -37 -3 -67 -13 -87 -28 -30 -22 -31 -22
-31 -2 0 23 53 60 88 60 36 0 65 36 57 72 -5 21 -3 33 6 40 19 13 95 2 130
-19z m-164 -47 c-4 -9 -16 -16 -27 -16 -12 0 -30 -5 -41 -10 -33 -18 -23 9 18
48 36 33 37 34 46 14 5 -12 7 -28 4 -36z m133 -25 c0 -11 3 -26 6 -35 5 -12 0
-16 -21 -16 -23 0 -26 3 -21 23 3 12 6 28 6 35 0 6 7 12 15 12 8 0 15 -9 15
-19z m110 -13 c0 -6 -7 -5 -15 2 -8 7 -15 17 -15 22 0 6 7 5 15 -2 8 -7 15
-17 15 -22z m-20 -96 c42 -43 64 -142 31 -142 -6 0 -18 25 -27 55 -27 83 -38
90 -154 90 -116 0 -127 -7 -154 -90 -9 -30 -21 -55 -27 -55 -33 0 -11 99 31
142 28 28 30 28 150 28 120 0 122 0 150 -28z m-60 -32 c27 -15 55 -112 40
-140 -15 -27 -60 -56 -68 -43 -9 12 -115 13 -123 0 -9 -13 -46 8 -65 38 -14
22 -14 29 0 79 9 30 24 60 34 65 22 14 158 14 182 1z m-53 -214 c9 -9 -16 -26
-37 -26 -21 0 -44 16 -37 26 6 11 64 10 74 0z m-107 -20 c0 -24 64 -40 105
-26 19 6 35 18 35 26 0 8 5 14 10 14 18 0 11 -49 -9 -60 -11 -5 -43 -10 -71
-10 -28 0 -60 5 -71 10 -20 11 -27 60 -9 60 6 0 10 -6 10 -14z m70 -77 c36 0
85 1 110 3 l45 3 3 -52 3 -53 -160 0 -161 0 0 48 c0 27 3 52 7 56 5 4 26 5 48
1 22 -4 69 -7 105 -6z m-192 -66 c-3 -60 -5 -68 -23 -68 -18 0 -20 8 -23 62
-3 62 -1 66 41 72 4 0 7 -29 5 -66z m423 57 c6 0 9 -27 7 -62 -3 -55 -5 -63
-23 -63 -18 0 -20 8 -23 69 -3 60 -1 68 13 62 9 -3 21 -6 26 -6z m-503 -142
l-3 -133 -54 -3 -54 -3 7 68 c4 37 12 86 17 107 11 39 57 96 79 96 7 0 10 -41
8 -132z m592 104 c32 -32 46 -76 56 -175 l7 -68 -54 3 -54 3 -3 133 c-2 91 1
132 8 132 7 0 24 -13 40 -28z m-146 -101 c18 -19 17 -20 -26 -23 l-43 -3 -3
-57 c-3 -49 -6 -58 -22 -58 -16 0 -19 9 -22 58 l-3 57 -55 0 -55 0 -3 -57 c-3
-49 -6 -58 -22 -58 -16 0 -19 9 -22 58 l-3 57 -43 3 c-43 3 -44 4 -26 23 15
17 31 19 174 19 143 0 159 -2 174 -19z m-392 -81 c-5 -78 -22 -78 -22 0 0 41
4 60 13 60 8 0 11 -17 9 -60z m458 0 c0 -78 -17 -78 -22 0 -2 43 1 60 10 60 8
0 12 -19 12 -60z m-370 -16 c0 -44 -1 -45 -27 -42 -25 3 -28 7 -31 46 -3 41
-2 42 27 42 30 0 31 -1 31 -46z m160 1 c0 -43 -1 -45 -30 -45 -29 0 -30 2 -30
45 0 43 1 45 30 45 29 0 30 -2 30 -45z m158 3 c-3 -39 -6 -43 -30 -46 -27 -3
-28 -2 -28 42 0 45 1 46 31 46 29 0 30 -1 27 -42z"/>
</g>
</svg>
